<svg xmlns="http://www.w3.org/2000/svg" xmlns:xlink="http://www.w3.org/1999/xlink" width="170" height="51.768" viewBox="0 0 170 51.768">
  <defs>
    <clipPath id="clip-path">
      <rect id="Rectangle_4" data-name="Rectangle 4" width="170" height="51.768" fill="none"/>
    </clipPath>
  </defs>
  <g id="Group_89" data-name="Group 89" transform="translate(0 0)">
    <g id="Group_1" data-name="Group 1" transform="translate(0 0)" clip-path="url(#clip-path)">
      <path id="Path_1" data-name="Path 1" d="M.005,45.19A24.59,24.59,0,0,0,30.959,47.24c4.929-3.428,9.287-9.932,11.308-15.509,3.589-9.909-.571-20.871-8.654-27.118C24.293-2.589,11.113-.94,2.66,6.66,1.566,7.645,1.1,9.327.005,10.3a24.386,24.386,0,0,1,40.7,14.815C43.656,46.911,16.918,54.364,2.66,41.548c.092.074-2.794,3.514-2.655,3.642" transform="translate(0 0)" fill="#96999c"/>
      <path id="Path_2" data-name="Path 2" d="M.629,31.328c7.8-8.178,20.064,2.581,26.572,7.442,5.707,4.251,18.258,16.176,25.441,8.709,1.031-1.076,1.616-2.578,2.649-3.653-7.181,7.468-19.748-4.448-25.434-8.705-6.5-4.865-18.792-15.614-26.576-7.44C2.248,28.76,1.654,30.25.629,31.328" transform="translate(0.028 1.085)" fill="#681b43"/>
      <path id="Path_3" data-name="Path 3" d="M62.422,17.084h4.031v.622a10.477,10.477,0,0,1-.145,1.945,2.876,2.876,0,0,1-.5,1.193,3.569,3.569,0,0,1-2.526,1.293,59.109,59.109,0,0,1-6.226.2,36.421,36.421,0,0,1-4.191-.181,3.673,3.673,0,0,1-3.358-2.367,8.383,8.383,0,0,1-.411-2.226q-.07-1.182-.07-2.5a15.754,15.754,0,0,1,.261-3.429,3.672,3.672,0,0,1,1.057-1.905,4.462,4.462,0,0,1,2.111-.993,26.562,26.562,0,0,1,4.822-.29q3.017,0,4.451.07a9.846,9.846,0,0,1,2.276.331,3.107,3.107,0,0,1,1.334.8,4.613,4.613,0,0,1,.932,3.259v.431h-3.98a2.72,2.72,0,0,0-.161-.862q-.2-.512-1.092-.652a21.151,21.151,0,0,0-2.628-.1,34.921,34.921,0,0,0-3.659.1,1.627,1.627,0,0,0-1.413,1.084,11.277,11.277,0,0,0-.191,2.657q0,2.245.572,2.827a2.949,2.949,0,0,0,1.834.572q.692.05,1.8.05,2.136,0,2.807-.03,1.805-.07,2.116-.912a3.265,3.265,0,0,0,.14-.993" transform="translate(2.153 0.371)" fill="#681b43"/>
      <path id="Path_4" data-name="Path 4" d="M67.284,22.234l7.7-13.685h5.585l7.489,13.685H83.507l-1.364-2.446H73.31L72,22.234Zm7.53-5.294H80.7l-2.977-5.453Z" transform="translate(2.955 0.375)" fill="#681b43"/>
      <path id="Path_5" data-name="Path 5" d="M89.009,22.233V8.548h11.82a9.717,9.717,0,0,1,3.7.492,2.641,2.641,0,0,1,1.383,1.5,7.146,7.146,0,0,1,.361,2.506q0,2.426-1.163,3.249a4.475,4.475,0,0,1-1.825.6q-.36.06-.832.13c.348.026.574.04.682.04a4.582,4.582,0,0,1,1.955.381,1.8,1.8,0,0,1,.762.923,4.915,4.915,0,0,1,.231,1.694v2.165h-4.222v-1.7a1.727,1.727,0,0,0-.521-1.484,1.866,1.866,0,0,0-.943-.251q-.2-.02-.832-.02H93.16v3.459Zm4.151-6.807h6.517a5.355,5.355,0,0,0,1.744-.2q.661-.251.662-1.313a6.411,6.411,0,0,0-.061-.993,1.047,1.047,0,0,0-.8-.9,5.807,5.807,0,0,0-1.394-.111H93.16Z" transform="translate(3.91 0.375)" fill="#681b43"/>
      <path id="Path_6" data-name="Path 6" d="M108.812,8.548h15.169v3.108H112.923v2.336h10.436V16.7H112.923v2.426h11.2v3.108H108.812Z" transform="translate(4.78 0.375)" fill="#681b43"/>
      <path id="Path_7" data-name="Path 7" d="M49.827,39.033V25.349h2.657l8.262,11.77,8.261-11.77h2.577V39.033H69.939V26.691L61.307,39.033H60.1L51.471,26.691V39.033Z" transform="translate(2.189 1.113)" fill="#96999c"/>
      <path id="Path_8" data-name="Path 8" d="M74.336,39.033V25.349H87.981v1.373h-12v4.562H87.53v1.3H75.98V37.66H88.072v1.374Z" transform="translate(3.265 1.113)" fill="#96999c"/>
      <path id="Path_9" data-name="Path 9" d="M90.442,39.034V25.348h10.647a9.94,9.94,0,0,1,3.489.451,3.68,3.68,0,0,1,1.885,1.535,9.992,9.992,0,0,1,.893,4.852,10.023,10.023,0,0,1-.893,4.863,3.848,3.848,0,0,1-2.256,1.674,11.452,11.452,0,0,1-3.118.311Zm1.644-1.374h9.133q2.9,0,3.72-1.333a8.342,8.342,0,0,0,.7-4.071,8.692,8.692,0,0,0-.731-4.3q-.8-1.232-3.81-1.233H92.086Z" transform="translate(3.973 1.113)" fill="#96999c"/>
      <rect id="Rectangle_1" data-name="Rectangle 1" width="1.644" height="13.685" transform="translate(114.747 26.461)" fill="#96999c"/>
      <path id="Path_10" data-name="Path 10" d="M129.518,34.438h1.6v.571a6.231,6.231,0,0,1-.341,2.427,2.794,2.794,0,0,1-2.256,1.523,41.188,41.188,0,0,1-5.564.231,27.1,27.1,0,0,1-5.494-.331,3.2,3.2,0,0,1-2.406-2.4,19.764,19.764,0,0,1-.3-4.261,25.639,25.639,0,0,1,.181-3.709,3.714,3.714,0,0,1,.912-2.036,3.669,3.669,0,0,1,1.9-.993,46.834,46.834,0,0,1,6.648-.26,22.123,22.123,0,0,1,3.95.231,2.889,2.889,0,0,1,2.265,1.684A7.649,7.649,0,0,1,131,29.665h-1.6v-.38a3.289,3.289,0,0,0-.331-1.7q-.421-.651-2.136-.841-1.032-.111-3.9-.111a25.121,25.121,0,0,0-4.762.27,2.016,2.016,0,0,0-1.283.832,3.719,3.719,0,0,0-.431,1.685q-.081,1.1-.08,2.777a21.543,21.543,0,0,0,.191,3.619,2.134,2.134,0,0,0,.771,1.314,3.989,3.989,0,0,0,1.834.521q1.084.1,3.44.1a32.148,32.148,0,0,0,5.273-.27,1.728,1.728,0,0,0,1.294-.853,3.151,3.151,0,0,0,.24-1.413Z" transform="translate(5.041 1.107)" fill="#96999c"/>
      <path id="Path_11" data-name="Path 11" d="M146.577,35.956h-11.2l-1.825,3.077h-1.815L139.8,25.348h2.336l8.071,13.686h-1.814Zm-.771-1.3-4.832-8.161-4.823,8.161Z" transform="translate(5.787 1.113)" fill="#96999c"/>
      <path id="Path_12" data-name="Path 12" d="M150.871,39.033V25.349h1.644V37.66h10.858v1.374Z" transform="translate(6.627 1.113)" fill="#96999c"/>
      <path id="Path_13" data-name="Path 13" d="M144.026,37.252l-.354,1.126h-.194l-.237-.81-.029-.1c0-.005-.006-.023-.015-.05l-.014-.051h0l-.014.051-.016.051-.03.1-.241.809h-.19l-.346-1.126h.131l.243.81.032.11c0,.009.008.027.017.054l.016.055h0l.016-.055.016-.054.032-.109.239-.811h.189l.237.811.032.109.015.055.016.054h0l.017-.055.017-.055.033-.111.247-.808Z" transform="translate(6.252 1.636)" fill="#96999c"/>
      <rect id="Rectangle_2" data-name="Rectangle 2" width="0.127" height="0.151" transform="translate(150.384 39.863)" fill="#96999c"/>
      <path id="Path_14" data-name="Path 14" d="M144.5,37.252v1.009h.58v.117h-.707V37.252Z" transform="translate(6.342 1.636)" fill="#96999c"/>
      <rect id="Rectangle_3" data-name="Rectangle 3" width="0.127" height="0.151" transform="translate(151.533 39.863)" fill="#96999c"/>
      <path id="Path_15" data-name="Path 15" d="M145.606,37.252v1.009h.579v.117h-.707V37.252Z" transform="translate(6.39 1.636)" fill="#96999c"/>
    </g>
  </g>
</svg>
