<svg xmlns="http://www.w3.org/2000/svg" xmlns:xlink="http://www.w3.org/1999/xlink" width="100" height="100" viewBox="0 0 100 100">
  <defs>
    <filter id="Ellipse_6" x="0" y="0" width="100" height="100" filterUnits="userSpaceOnUse">
      <feOffset input="SourceAlpha"/>
      <feGaussianBlur stdDeviation="5" result="blur"/>
      <feFlood flood-opacity="0.071"/>
      <feComposite operator="in" in2="blur"/>
      <feComposite in="SourceGraphic"/>
    </filter>
  </defs>
  <g id="Group_878" data-name="Group 878" transform="translate(-626 -112)">
    <g transform="matrix(1, 0, 0, 1, 626, 112)" filter="url(#Ellipse_6)">
      <circle id="Ellipse_6-2" data-name="Ellipse 6" cx="35" cy="35" r="35" transform="translate(15 15)" fill="#fff"/>
    </g>
    <g id="Layer_x0020_1" transform="translate(654.002 140.031)">
      <g id="_263133048">
        <g id="Group_879" data-name="Group 879" transform="translate(7.288 0.085)">
          <g id="Group_878-2" data-name="Group 878">
            <path id="Path_9777" data-name="Path 9777" d="M21148.25,6695.5a.25.25,0,0,1,0-.5l14.164.044a.251.251,0,0,1,0,.5Z" transform="translate(-21147.613 -6692.655)" fill="#7f2854"/>
            <path id="Path_9778" data-name="Path 9778" d="M27169.227,19570.48a.249.249,0,0,1-.248-.252.253.253,0,0,1,.252-.25l9.8.082a.251.251,0,0,1-.006.5Z" transform="translate(-27166.406 -19562.961)" fill="#7f2854"/>
            <path id="Path_9779" data-name="Path 9779" d="M24769.25,47216.508a.254.254,0,0,1-.25-.25.249.249,0,0,1,.25-.25l7.793,0a.25.25,0,0,1,0,.5Z" transform="translate(-24767.299 -47198.953)" fill="#7f2854"/>
            <path id="Path_9780" data-name="Path 9780" d="M22011.252,60212.5a.25.25,0,1,1,0-.5l8.025.027a.252.252,0,0,1,.25.25.249.249,0,0,1-.25.25Z" transform="translate(-22010.299 -60190.238)" fill="#7f2854"/>
            <path id="Path_9781" data-name="Path 9781" d="M26395.25,73347.5a.25.25,0,0,1,0-.5l8.516.023a.248.248,0,0,1,.25.25.253.253,0,0,1-.25.25Z" transform="translate(-26392.709 -73320.461)" fill="#7f2854"/>
            <path id="Path_9782" data-name="Path 9782" d="M26314.16,99144.422a.261.261,0,0,1-.248-.258.243.243,0,0,1,.256-.242l10.215.172a.242.242,0,0,1,.246.25.251.251,0,0,1-.254.25Z" transform="translate(-26311.65 -99108.023)" fill="#7f2854"/>
            <path id="Path_9783" data-name="Path 9783" d="M21170.25,112145.516a.25.25,0,0,1,0-.5h13.441a.25.25,0,0,1,.252.25.255.255,0,0,1-.252.25Z" transform="translate(-21169.604 -112104.398)" fill="#7f2854"/>
            <path id="Path_9784" data-name="Path 9784" d="M21734.205,327.065a.335.335,0,0,1,.67.016,15.755,15.755,0,0,1-.363,3.535,8.3,8.3,0,0,1-2.035,3.665,33.082,33.082,0,0,1-4.223,3.534,35.1,35.1,0,0,0-4.781,4.044,10.024,10.024,0,0,0-2.281,3.956,8.522,8.522,0,0,0-.088,4.3,11.568,11.568,0,0,0,1.662,3.728,16.79,16.79,0,0,0,3.105,3.471c1.059.9,2.178,1.731,3.223,2.5a32.831,32.831,0,0,1,3.125,2.5,6.26,6.26,0,0,1,1.668,3.024,13.27,13.27,0,0,1,.254,4.368.335.335,0,1,1-.668-.055,12.577,12.577,0,0,0-.238-4.148,5.553,5.553,0,0,0-1.479-2.707,32.812,32.812,0,0,0-3.061-2.441c-1.055-.78-2.186-1.617-3.258-2.533a17.467,17.467,0,0,1-3.23-3.61,12.287,12.287,0,0,1-1.756-3.945,9.131,9.131,0,0,1,.1-4.636,10.643,10.643,0,0,1,2.43-4.221,35.447,35.447,0,0,1,4.873-4.13,32.409,32.409,0,0,0,4.133-3.452,7.63,7.63,0,0,0,1.875-3.377A14.985,14.985,0,0,0,21734.205,327.065Z" transform="translate(-21719.604 -326.704)" fill="#7f2854"/>
            <path id="Path_9785" data-name="Path 9785" d="M20081.266,276.269a.336.336,0,0,1-.672,0v0h0c0-2.412.008-4.825,2.277-7.309.006-.007.014-.013.02-.02a31.639,31.639,0,0,1,4.209-3.511,33.538,33.538,0,0,0,4.785-4.039c.066-.073.121-.137.172-.194.064-.075.117-.14.164-.2a.334.334,0,1,1,.516.425c-.062.078-.121.148-.172.206-.066.077-.127.147-.182.207a34.177,34.177,0,0,1-4.881,4.128,31.434,31.434,0,0,0-4.121,3.426.108.108,0,0,1-.016.018c-2.1,2.3-2.1,4.577-2.1,6.859h0Zm10.922-28.426a.334.334,0,1,1-.527.412,17.532,17.532,0,0,0-1.217-1.4c-.443-.461-.908-.9-1.387-1.307-.963-.822-1.982-1.533-2.951-2.209a18.065,18.065,0,0,1-3.68-3.047h0a8.075,8.075,0,0,1-1.531-3.154,24.616,24.616,0,0,1-.553-3.423.335.335,0,0,1,.666-.073,23.964,23.964,0,0,0,.535,3.328,7.424,7.424,0,0,0,1.4,2.9h0a17.559,17.559,0,0,0,3.543,2.922c.986.688,2.023,1.411,3,2.248.494.423.975.875,1.434,1.352A18.559,18.559,0,0,1,20092.188,247.843Z" transform="translate(-20080.34 -233.341)" fill="#7f2854"/>
            <path id="Path_9786" data-name="Path 9786" d="M48089.5,42520a.5.5,0,0,1,0-1l6.512,0a.5.5,0,0,1,0,1Z" transform="translate(-48078.84 -42503.652)" fill="#7f2854"/>
            <path id="Path_9787" data-name="Path 9787" d="M43433.5,60363a.5.5,0,0,1,0-1l9.781.027a.5.5,0,0,1,0,1Z" transform="translate(-43424.523 -60340.18)" fill="#7f2854"/>
            <path id="Path_9788" data-name="Path 9788" d="M60406.6,33541.707a.5.5,0,0,1-.781-.633,12.07,12.07,0,0,0,2.906-8.379,12.357,12.357,0,0,0-3.832-8.1.508.508,0,0,1-.012-.711.5.5,0,0,1,.711-.008,13.346,13.346,0,0,1,4.133,8.762A13.06,13.06,0,0,1,60406.6,33541.707Z" transform="translate(-60390.109 -33511.652)" fill="#7f2854"/>
          </g>
          <path id="Path_9789" data-name="Path 9789" d="M43284.266,32417.8a9.356,9.356,0,0,1,8.266,10.332v0a9.361,9.361,0,0,1-10.3,8.268.435.435,0,0,1-.066-.008,9.353,9.353,0,0,1-8.23-10.3.216.216,0,0,1,.008-.07,9.357,9.357,0,0,1,10.328-8.229Zm5.488,4.082a8.317,8.317,0,0,0-5.6-3.086h0a8.347,8.347,0,0,0-9.227,7.377v0a8.343,8.343,0,0,0,7.375,9.225h0a8.347,8.347,0,0,0,9.227-7.377h0A8.306,8.306,0,0,0,43289.754,32421.887Z" transform="translate(-43265.457 -32406.066)" fill="#96999c"/>
          <path id="Path_9790" data-name="Path 9790" d="M75401.766,80747.383a.332.332,0,0,1,.594-.3l1.055,2.125a.327.327,0,0,1-.148.445.334.334,0,0,1-.453-.148Z" transform="translate(-75381.648 -80717.68)" fill="#96999c"/>
          <path id="Path_9791" data-name="Path 9791" d="M76390,83726.3l2.188-.953h0l.016-.008a1.13,1.13,0,0,1,.859-.008,1.079,1.079,0,0,1,.633.609h.008v.016l4.438,10.2a1.119,1.119,0,0,1,.016.883,1.1,1.1,0,0,1-.609.633l-2.18.953h0a1.14,1.14,0,0,1-1.508-.594v-.008l-4.453-10.2a1.191,1.191,0,0,1-.016-.883A1.15,1.15,0,0,1,76390,83726.3Zm2.578-.031-2.172.945a.142.142,0,0,0-.078.086.133.133,0,0,0,0,.109l4.445,10.219h0a.157.157,0,0,0,.086.07.133.133,0,0,0,.109,0h0l2.18-.953a.129.129,0,0,0,.078-.078.152.152,0,0,0,0-.117l-4.445-10.2v-.023h0a.124.124,0,0,0-.078-.062.136.136,0,0,0-.109-.008l-.016.008Z" transform="translate(-76368.875 -83694.945)" fill="#96999c"/>
          <path id="Path_9792" data-name="Path 9792" d="M72674.234,39673.273a.336.336,0,0,1-.25-.4.344.344,0,0,1,.406-.25,6.85,6.85,0,0,1,3.9,2.531,7.107,7.107,0,0,1,1.094,2.109,6.932,6.932,0,0,1,.3,2.359.336.336,0,0,1-.672-.031,6.19,6.19,0,0,0-.273-2.129,6.205,6.205,0,0,0-2.547-3.355A6.215,6.215,0,0,0,72674.234,39673.273Z" transform="translate(-72654.891 -39658.301)" fill="#7f2854"/>
          <path id="Path_9793" data-name="Path 9793" d="M80189.758,79110.4a.338.338,0,0,1,.148-.453.346.346,0,0,1,.453.156l1.047,2.117a.334.334,0,1,1-.594.3Z" transform="translate(-80167.906 -79081.289)" fill="#96999c"/>
        </g>
        <path id="Path_9794" data-name="Path 9794" d="M0,0H43.937V43.937H0Z" fill="none" fill-rule="evenodd"/>
      </g>
    </g>
  </g>
</svg>
