<svg xmlns="http://www.w3.org/2000/svg" xmlns:xlink="http://www.w3.org/1999/xlink" width="100" height="100" viewBox="0 0 100 100">
  <defs>
    <filter id="Ellipse_6" x="0" y="0" width="100" height="100" filterUnits="userSpaceOnUse">
      <feOffset input="SourceAlpha"/>
      <feGaussianBlur stdDeviation="5" result="blur"/>
      <feFlood flood-opacity="0.071"/>
      <feComposite operator="in" in2="blur"/>
      <feComposite in="SourceGraphic"/>
    </filter>
  </defs>
  <g id="Group_864" data-name="Group 864" transform="translate(-626 -112)">
    <g transform="matrix(1, 0, 0, 1, 626, 112)" filter="url(#Ellipse_6)">
      <circle id="Ellipse_6-2" data-name="Ellipse 6" cx="35" cy="35" r="35" transform="translate(15 15)" fill="#fff"/>
    </g>
    <g id="Layer_x0020_1" transform="translate(653.744 139.743)">
      <g id="_339932248">
        <path id="Path_9725" data-name="Path 9725" d="M0,0H44.513V44.513H0Z" fill="none" fill-rule="evenodd"/>
        <g id="Group_868" data-name="Group 868" transform="translate(5.188 0.001)">
          <g id="Group_867" data-name="Group 867" transform="translate(0 12.735)">
            <path id="Path_9726" data-name="Path 9726" d="M25044,33008.75a1.469,1.469,0,0,0,.484-.453,1.166,1.166,0,0,0,.162-.629v-1.41h.51v1.41a1.654,1.654,0,0,1-.242.895,1.924,1.924,0,0,1-.648.621Zm8.469-2.75v1.668a1.424,1.424,0,0,0,.176.7,1.365,1.365,0,0,0,.488.512l-.266.438a1.9,1.9,0,0,1-.668-.7,1.949,1.949,0,0,1-.24-.941V33006Z" transform="translate(-25031.486 -32995.406)" fill="#96999c"/>
            <path id="Path_9727" data-name="Path 9727" d="M17856.105,18027.936a.339.339,0,0,1-.494.465,7.568,7.568,0,0,1-1.328-1.955,11.629,11.629,0,0,1-.816-2.422,1.541,1.541,0,0,1-.166-.02,1.712,1.712,0,0,1-1.082-.869,5.583,5.583,0,0,1-.594-1.457,5.942,5.942,0,0,1-.219-2.2,1.04,1.04,0,0,1,.563-.762,1.73,1.73,0,0,1,1.025-.141.339.339,0,0,1-.1.672,1.052,1.052,0,0,0-.613.072.375.375,0,0,0-.209.281,5.213,5.213,0,0,0,.207,1.9,4.889,4.889,0,0,0,.514,1.273,1.084,1.084,0,0,0,.629.559.5.5,0,0,0,.221-.01l.016-.006a.339.339,0,0,1,.4.262,11.434,11.434,0,0,0,.832,2.568A6.789,6.789,0,0,0,17856.105,18027.936Z" transform="translate(-17843.943 -18018.559)" fill="#96999c"/>
            <path id="Path_9728" data-name="Path 9728" d="M37630.938,18022.18a.338.338,0,1,1-.242-.631,1.735,1.735,0,0,1,.3-.088,1.411,1.411,0,0,1,.746.049.217.217,0,0,1,.031.014,1.031,1.031,0,0,1,.582.6,1.434,1.434,0,0,1,.066.244,6.851,6.851,0,0,1-.348,2.8,3.729,3.729,0,0,1-.492.982,1.366,1.366,0,0,1-.836.572,1.147,1.147,0,0,1-.2.02,10.773,10.773,0,0,1-.77,2.566,6.911,6.911,0,0,1-1.469,2.105.338.338,0,1,1-.477-.48,6.337,6.337,0,0,0,1.332-1.906,10.657,10.657,0,0,0,.77-2.707.292.292,0,0,1,.016-.078.342.342,0,0,1,.43-.211.473.473,0,0,0,.242.025.734.734,0,0,0,.418-.314,2.886,2.886,0,0,0,.391-.8,6.075,6.075,0,0,0,.324-2.457.522.522,0,0,0-.031-.121.375.375,0,0,0-.2-.215.1.1,0,0,1-.023-.006.757.757,0,0,0-.387-.02A1.133,1.133,0,0,0,37630.938,18022.18Z" transform="translate(-37606.328 -18021.432)" fill="#96999c"/>
            <path id="Path_9729" data-name="Path 9729" d="M24486.637,36663.32a.507.507,0,1,1,.91-.449l3.988,8.07,3.986-8.07a.5.5,0,0,1,.68-.23.509.509,0,0,1,.232.68l-4.443,9a.509.509,0,0,1-.912,0Z" transform="translate(-24474.465 -36649.41)" fill="#96999c"/>
            <path id="Path_9730" data-name="Path 9730" d="M7361.088,36482.211a.507.507,0,1,1,.275-.977l7.3,2.066.045.012c.389.125,3.954,1.355,4.336,4.809,0,.016,0,.031,0,.047l.786,8.867a2.624,2.624,0,0,1-.107,1.043,2.464,2.464,0,0,1-.519.9,2.467,2.467,0,0,1-1.87.836h-29.116a2.523,2.523,0,0,1-1.027-.215,2.49,2.49,0,0,1-.843-.621,2.533,2.533,0,0,1-.527-.91,2.488,2.488,0,0,1-.1-1.043c0-.008,0-.016,0-.023l.786-8.867v-.012h0c.4-3.645,4.359-4.812,4.371-4.816h0v0l7.323-2.191a.508.508,0,1,1,.291.973l-7.323,2.2h0c-.092.027-3.326,1.02-3.652,3.957h0l-.785,8.855a.318.318,0,0,1,0,.043,1.5,1.5,0,0,0,.056.625,1.487,1.487,0,0,0,.315.539,1.562,1.562,0,0,0,.5.375,1.543,1.543,0,0,0,.613.121h29.116a1.541,1.541,0,0,0,.612-.121,1.567,1.567,0,0,0,.5-.375,1.461,1.461,0,0,0,.307-.531,1.609,1.609,0,0,0,.064-.641l-.787-8.867a.192.192,0,0,1,0-.023c-.313-2.824-3.31-3.852-3.627-3.949l-.018,0Z" transform="translate(-7339.712 -36468.035)" fill="#96999c"/>
          </g>
          <path id="Path_9731" data-name="Path 9731" d="M42042.258,55936.508a.254.254,0,1,1,0-.508h3.953a.254.254,0,0,1,0,.508Z" transform="translate(-42017.473 -55896.465)" fill="#7f2854"/>
          <path id="Path_9732" data-name="Path 9732" d="M23702.479,26300.914a6.156,6.156,0,0,0,.789-1.488,12.344,12.344,0,0,0,.51-1.8.34.34,0,0,1,.4-.262l1.977.275a.342.342,0,0,1,.219.125,3.927,3.927,0,0,0,.711.656.717.717,0,0,0,1.064,0,4.007,4.007,0,0,0,.723-.67.341.341,0,0,1,.207-.111h0l2-.279a.339.339,0,0,1,.377.266h0a12.488,12.488,0,0,0,.535,1.871,5.887,5.887,0,0,0,.854,1.535.34.34,0,0,1-.043.465,8.766,8.766,0,0,1-.926.783,12.778,12.778,0,0,1-1.113.732,6.932,6.932,0,0,1-1.531.643,5.546,5.546,0,0,1-1.5.232,5.682,5.682,0,0,1-1.5-.223,7.192,7.192,0,0,1-1.537-.629,11.722,11.722,0,0,1-1.172-.777,8.25,8.25,0,0,1-1.01-.9A.337.337,0,0,1,23702.479,26300.914Zm1.424-1.248a6.872,6.872,0,0,1-.719,1.42,7.786,7.786,0,0,0,.732.631,11.792,11.792,0,0,0,1.105.732,6.374,6.374,0,0,0,1.379.557,5.006,5.006,0,0,0,1.318.2,4.908,4.908,0,0,0,1.316-.205,6.27,6.27,0,0,0,1.375-.576,12.344,12.344,0,0,0,1.055-.693c.232-.172.449-.348.652-.531a6.809,6.809,0,0,1-.766-1.463,12.1,12.1,0,0,1-.5-1.666l-1.562.219a4.4,4.4,0,0,1-.762.688,1.952,1.952,0,0,1-.867.352.315.315,0,0,1-.086,0,1.924,1.924,0,0,1-.877-.354,4.552,4.552,0,0,1-.762-.687l-1.562-.219A12.369,12.369,0,0,1,23703.9,26299.666Z" transform="translate(-23690.84 -26278.766)" fill="#7f2854"/>
          <path id="Path_9733" data-name="Path 9733" d="M35550.4,19330.727l-3.441,4.736a.341.341,0,0,1-.555-.4l3.688-5.064.1.42A.512.512,0,0,0,35550.4,19330.727Z" transform="translate(-35526.406 -19316.338)" fill="#7f2854"/>
          <path id="Path_9734" data-name="Path 9734" d="M18374.771,13024.979a.509.509,0,1,1,1.016-.06,8.836,8.836,0,0,0,.289,1.709c.023.087.047.174.072.264l.438-2.318a.509.509,0,1,1,1,.188l-.795,4.209a.509.509,0,0,1-.982.1c-.3-.824-.543-1.53-.715-2.187A9.782,9.782,0,0,1,18374.771,13024.979Zm14.986-.2a.509.509,0,0,1,.992-.231l.535,2.28c.076-.266.152-.527.227-.78.139-.481.271-.937.4-1.421a.508.508,0,1,1,.982.262c-.1.388-.252.9-.41,1.441-.248.851-.518,1.776-.732,2.666a.509.509,0,0,1-1,.035Z" transform="translate(-18366.973 -13014.947)" fill="#96999c"/>
          <path id="Path_9735" data-name="Path 9735" d="M18375.352,4.552l-.363,4.534-.146,1.853a44.625,44.625,0,0,1,7.943-.712,46.6,46.6,0,0,1,8.076.716l-.51-6.391a1.633,1.633,0,0,0-.439-1.023,1.8,1.8,0,0,0-1.037-.524,38.121,38.121,0,0,0-5.941-.429,48.638,48.638,0,0,0-6.113.429,1.711,1.711,0,0,0-1.023.509A1.675,1.675,0,0,0,18375.352,4.552Zm-1.377,4.454.361-4.534a2.689,2.689,0,0,1,.723-1.66,2.73,2.73,0,0,1,1.629-.815,49.554,49.554,0,0,1,6.246-.437,39.03,39.03,0,0,1,6.092.437,2.824,2.824,0,0,1,1.625.831,2.663,2.663,0,0,1,.717,1.644l.563,7.051h0a.619.619,0,0,1-.008.134.508.508,0,0,1-.594.406,45.766,45.766,0,0,0-8.543-.819,43.637,43.637,0,0,0-8.391.816.5.5,0,0,1-.152.011.51.51,0,0,1-.469-.547Z" transform="translate(-18365.973 -1.56)" fill="#7f2854"/>
          <path id="Path_9736" data-name="Path 9736" d="M20864.324,19371l3.664,5.035a.34.34,0,0,1-.551.4l-3.437-4.725a.518.518,0,0,0,.262-.377Z" transform="translate(-20854.441 -19357.309)" fill="#7f2854"/>
        </g>
      </g>
    </g>
  </g>
</svg>
