<svg xmlns="http://www.w3.org/2000/svg" xmlns:xlink="http://www.w3.org/1999/xlink" width="100" height="100" viewBox="0 0 100 100">
  <defs>
    <filter id="Ellipse_6" x="0" y="0" width="100" height="100" filterUnits="userSpaceOnUse">
      <feOffset input="SourceAlpha"/>
      <feGaussianBlur stdDeviation="5" result="blur"/>
      <feFlood flood-opacity="0.071"/>
      <feComposite operator="in" in2="blur"/>
      <feComposite in="SourceGraphic"/>
    </filter>
  </defs>
  <g id="Group_861" data-name="Group 861" transform="translate(-626 -112)">
    <g transform="matrix(1, 0, 0, 1, 626, 112)" filter="url(#Ellipse_6)">
      <circle id="Ellipse_6-2" data-name="Ellipse 6" cx="35" cy="35" r="35" transform="translate(15 15)" fill="#fff"/>
    </g>
    <g id="Layer_x0020_1" transform="translate(654.233 139.233)">
      <g id="_342320896">
        <g id="Group_866" data-name="Group 866" transform="translate(0.199 0.002)">
          <path id="Path_9717" data-name="Path 9717" d="M161.241,8.119a4.593,4.593,0,0,1,3.645-1.305,4.606,4.606,0,0,1,9.14-1.083l0,.019a4.634,4.634,0,0,1-.265,2.415l4.951,4.981a.509.509,0,0,1,.141.275l1.106,6.492a.516.516,0,0,1-.078.366l-3.178,5.3a.508.508,0,0,1-.7.175.537.537,0,0,1-.1-.08L166.1,15.712a4.607,4.607,0,0,1-4.859-7.593Zm2.295-.182A3.589,3.589,0,1,0,166,14.649a.51.51,0,0,1,.58.1l9.589,9.739,2.755-4.594-1.048-6.149L172.8,8.637a.509.509,0,0,1-.1-.581,3.611,3.611,0,0,0,.322-2.146l0-.015a3.59,3.59,0,1,0-7.035,1.414.515.515,0,0,1,0,.25.507.507,0,0,1-.617.367A3.608,3.608,0,0,0,163.536,7.937Zm18.384,8.514,15.85,16.1a4.607,4.607,0,0,1,4.859,7.593,4.592,4.592,0,0,1-3.643,1.305,4.639,4.639,0,0,1-.164,1.611,4.608,4.608,0,1,1-8.714-2.964L177.848,27.62a.509.509,0,0,1-.072-.621l3.885-6.355-.606-3.757a.508.508,0,0,1,.864-.437Zm15.367,17.06L182.312,18.3l.38,2.349a.507.507,0,0,1-.065.365l-3.775,6.177,12.223,12.438a.509.509,0,0,1,.093.58,3.59,3.59,0,1,0,6.717.747.487.487,0,0,1,0-.25.509.509,0,0,1,.617-.367,3.608,3.608,0,0,0,1.834-.011,3.59,3.59,0,1,0-2.469-6.713A.51.51,0,0,1,197.287,33.511Z" transform="translate(-159.867 -1.867)" fill="#96999c"/>
          <g id="Group_865" data-name="Group 865" transform="translate(9.588 4.964)">
            <path id="Path_9718" data-name="Path 9718" d="M19701.631,9281.33a.509.509,0,0,1-.307-.972l2.291-.727a.511.511,0,0,1,.309.974Zm4.076-1.289a.509.509,0,1,1-.309-.971l.242-.077a.509.509,0,1,1,.307.972Z" transform="translate(-19686.24 -9272.39)" fill="#7f2854"/>
            <path id="Path_9719" data-name="Path 9719" d="M18480.059,5368.874a.509.509,0,1,1-.76-.678l1.988-2.23a.509.509,0,1,1,.76.677Zm3.535-3.965a.509.509,0,1,1-.76-.677l.211-.235a.509.509,0,0,1,.76.677Z" transform="translate(-18465.961 -5362.117)" fill="#7f2854"/>
            <path id="Path_9720" data-name="Path 9720" d="M16583.969,3995.736a.509.509,0,0,1-1.016-.075l.178-2.32a.509.509,0,1,1,1.016.076Zm.314-4.123a.508.508,0,1,1-1.014-.076l.018-.244a.509.509,0,1,1,1.016.076Z" transform="translate(-16572.104 -3990.822)" fill="#7f2854"/>
            <path id="Path_9721" data-name="Path 9721" d="M14092.459,23138.008a.509.509,0,0,1,1.008.146l-.35,2.379a.509.509,0,1,1-1.008-.148Zm-.622,4.227a.509.509,0,0,1,1.008.148l-.038.25a.509.509,0,1,1-1.007-.146Z" transform="translate(-14084.047 -23113.746)" fill="#7f2854"/>
            <path id="Path_9722" data-name="Path 9722" d="M9963.157,22192.682a.509.509,0,1,1,.789.643l-1.885,2.318a.509.509,0,1,1-.789-.643Zm-3.35,4.125a.507.507,0,1,1,.787.639l-.2.244a.508.508,0,1,1-.789-.641Z" transform="translate(-9956.888 -22169.846)" fill="#7f2854"/>
            <path id="Path_9723" data-name="Path 9723" d="M7869.513,20518.875a.508.508,0,0,1,.235.988l-2.262.545a.508.508,0,0,1-.233-.988Zm-4.021.969a.508.508,0,0,1,.235.988l-.237.057a.508.508,0,0,1-.235-.988Z" transform="translate(-7864.864 -20498.295)" fill="#7f2854"/>
          </g>
        </g>
        <path id="Path_9724" data-name="Path 9724" d="M0,0H44.533V44.533H0Z" fill="none" fill-rule="evenodd"/>
      </g>
    </g>
  </g>
</svg>
