<svg xmlns="http://www.w3.org/2000/svg" xmlns:xlink="http://www.w3.org/1999/xlink" width="100" height="100" viewBox="0 0 100 100">
  <defs>
    <filter id="Ellipse_6" x="0" y="0" width="100" height="100" filterUnits="userSpaceOnUse">
      <feOffset input="SourceAlpha"/>
      <feGaussianBlur stdDeviation="5" result="blur"/>
      <feFlood flood-opacity="0.071"/>
      <feComposite operator="in" in2="blur"/>
      <feComposite in="SourceGraphic"/>
    </filter>
  </defs>
  <g id="Group_875" data-name="Group 875" transform="translate(-21142.438 -23452.438)">
    <g transform="matrix(1, 0, 0, 1, 21142.44, 23452.44)" filter="url(#Ellipse_6)">
      <circle id="Ellipse_6-2" data-name="Ellipse 6" cx="35" cy="35" r="35" transform="translate(15 15)" fill="#fff"/>
    </g>
    <g id="Layer_x0020_1" transform="translate(21169.557 23479.443)">
      <g id="_342300976">
        <path id="Path_9770" data-name="Path 9770" d="M0,0H45.76V45.76H0Z" fill="none" fill-rule="evenodd"/>
        <g id="Group_877" data-name="Group 877" transform="translate(5.759 0.001)">
          <g id="Group_875-2" data-name="Group 875" transform="translate(3.095 14.236)">
            <path id="Path_9771" data-name="Path 9771" d="M23466.557,37737.32a.349.349,0,0,1-.6-.359l0-.008,0-.008,0-.008.006-.008.006-.008,0-.012.006-.012.006-.008,0-.012.008-.016.008-.012,0-.012.01-.016.006-.012.008-.012.008-.016.006-.016.008-.012.008-.016.008-.012.008-.02.008-.016.008-.016.01-.023.01-.016.01-.016.008-.02.008-.02.012-.016.008-.02.01-.02.01-.016.01-.023.01-.023.01-.02.012-.02.012-.02.01-.023.01-.023.012-.016.012-.023.012-.023.01-.027.012-.02.016-.02.01-.023.014-.027.012-.02.012-.023.012-.023.012-.023.016-.027.014-.027.012-.023.014-.027.014-.023.014-.023.014-.023.012-.031.018-.027.016-.023.012-.027.016-.027.016-.023.012-.023a.35.35,0,1,1,.611.34l-.014.027-.016.023-.014.023-.014.023-.012.023-.016.023-.012.027-.016.023-.014.031-.012.02-.012.027-.014.02-.012.027-.014.02-.012.023-.014.023-.012.023-.012.023-.012.023-.012.023-.01.02-.012.02-.01.023-.014.023-.012.02-.01.023-.01.023-.012.016-.01.023-.01.016-.008.023-.012.02-.008.02-.014.016-.008.023-.012.02-.008.02-.008.02-.01.016-.01.016-.008.02-.008.02-.008.016-.012.016-.008.016-.008.016-.01.02-.008.016-.006.016-.008.016-.008.016-.008.016-.006.012-.008.012-.008.016-.008.016-.01.012-.006.012-.006.016-.008.008-.008.02,0,.012-.008.012-.008.012Zm1.172,8.012a.348.348,0,0,1-.459-.184.362.362,0,0,1,.189-.465l1.289-.531a.352.352,0,0,1,.459.191.346.346,0,0,1-.189.453Zm3.225-1.34a.347.347,0,0,1-.457-.187.343.343,0,0,1,.189-.453l1.289-.539a.35.35,0,0,1,.457.191.343.343,0,0,1-.187.453Zm3.227-1.34a.349.349,0,1,1-.27-.645l.283-.117.047-.02.049-.023.049-.023.051-.023.047-.023.049-.027.047-.023.049-.023.045-.031.047-.023.045-.023.045-.027.045-.031.043-.027.045-.027.041-.023.043-.031.043-.027.041-.027.008-.008a.348.348,0,1,1,.41.563l-.016.016-.049.031-.047.035-.049.031-.049.031-.051.031-.049.035-.051.027-.051.027-.053.031-.051.031-.053.027-.053.027-.055.031-.057.027-.051.031-.057.023-.055.023-.059.027-.055.027h-.01Zm2.8-2.344a.348.348,0,1,1-.607-.34l.014-.027.02-.039.025-.039.02-.039.02-.043.02-.039.02-.039.021-.039.02-.039.016-.043.02-.039.016-.043.021-.039.016-.047.016-.039.016-.039.016-.043.014-.043.014-.043.018-.039.012-.043.012-.043.016-.039.012-.047.012-.043.012-.039.012-.047.01-.043.012-.043,0-.016a.349.349,0,0,1,.414-.266.353.353,0,0,1,.268.422l-.006.016-.014.055-.014.051-.012.047-.012.047-.016.051-.014.055-.014.047-.016.047-.018.047-.016.051-.016.047-.018.051-.018.047-.018.051-.02.051-.02.047-.02.047-.02.051-.023.043-.021.047-.02.043-.023.047-.023.051-.023.047-.023.047-.025.043-.023.047-.025.047Zm.59-3.609a.346.346,0,0,1-.279.406.35.35,0,0,1-.406-.281l-.008-.039-.008-.039-.008-.047-.008-.047-.01-.043-.01-.043-.012-.043-.012-.043-.01-.047-.012-.043-.012-.043-.012-.039-.012-.051-.014-.039-.014-.043-.014-.043-.016-.043-.014-.047-.014-.039-.016-.043-.016-.043-.016-.043-.018-.039-.016-.047-.02-.039-.016-.039-.02-.043-.018-.047-.02-.039,0,0a.35.35,0,0,1,.633-.3l0,.016.023.051.02.047.02.043.021.047.02.051.02.047.018.043.018.051.02.055.018.047.016.047.016.047.018.051.014.047.018.047.016.047.014.055.014.051.012.047.016.047.012.055.014.051.01.047.012.047.01.055.012.051.008.047.01.051Zm-1.746-3.215a.35.35,0,1,1-.469.52l0,0-.035-.027-.033-.031-.035-.035-.037-.031-.035-.031-.037-.027-.035-.027-.035-.031-.039-.027-.037-.031-.037-.027-.039-.027-.039-.027-.039-.027-.037-.023-.039-.027-.041-.031-.041-.023-.041-.023-.041-.027-.041-.023-.041-.027-.041-.02-.043-.027-.041-.02-.045-.023-.043-.023-.012-.008a.348.348,0,1,1,.313-.621l.018.008.053.023.047.027.049.027.049.023.049.031.047.027.047.031.047.023.049.031.043.027.047.035.045.027.045.031.045.031.043.031.047.031.039.031.045.035.043.031.041.035.043.031.041.035.043.035.039.039.041.031.039.035.039.035Zm-3.35-1.457a.351.351,0,0,1,.316.383.344.344,0,0,1-.379.313l-.039,0-.047,0-.047,0-.047,0h-.047l-.045,0h-.092l-.047,0h-.178l-.045,0h-.088l-.043,0-.045,0h-.043l-.041.008-.043,0-.041,0-.043,0-.043,0-.041.008-.041,0-.043.012-.039,0-.039.008-.029.008a.352.352,0,0,1-.131-.691l.035,0,.049-.008.047-.008.049-.008.045-.008.051-.008.047,0,.049,0,.049-.008.051,0,.047,0,.053,0,.047,0h.053l.049-.008h.414l.051,0,.055,0h.051l.055.008h.053l.055.008Zm-3.533.945a.341.341,0,0,1,.486.082.351.351,0,0,1-.082.488h0l-.029.023-.029.016-.031.023-.029.023-.029.023-.031.023-.027.02-.029.023-.029.027-.029.02-.027.027-.027.02-.031.027-.025.02-.027.027-.029.023-.027.031-.027.02-.027.027-.027.023-.025.023-.027.023-.027.031-.027.023-.025.027-.023.023-.027.027-.025.027-.025.023-.025.027-.023.027-.027.027-.025.027-.023.027-.023.023-.021.02a.343.343,0,0,1-.492.027.349.349,0,0,1-.025-.492l.02-.023.029-.027.025-.031.025-.031.027-.027.029-.027.027-.027.027-.031.027-.031.031-.027.029-.027.027-.031.029-.023.031-.031.027-.027.031-.031.029-.027.029-.027.029-.027.033-.027.031-.023.031-.035.031-.023.031-.027.031-.027.033-.023.033-.027.031-.027.033-.023.033-.031.033-.023.033-.027.035-.023.031-.023.035-.023.033-.027Z" transform="translate(-23465.908 -37732.004)" fill="#7f2854"/>
            <path id="Path_9772" data-name="Path 9772" d="M47627.852,57132.215a.36.36,0,0,1-.238.441.365.365,0,0,1-.437-.242l-.047-.164-.047-.16-.051-.16-.055-.156-.055-.156-.051-.148-.055-.152-.062-.152-.016-.043a.354.354,0,0,1,.2-.453.348.348,0,0,1,.453.2l.02.039.059.16.059.156.055.16.059.164.055.164.051.168.055.168Zm-16.516,6.617a.352.352,0,0,1-.668.223h0l-.062-.2-.062-.191-.059-.2-.059-.191-.051-.191-.059-.191-.051-.187,0-.016a.346.346,0,0,1,.254-.422.355.355,0,0,1,.426.25v.012l.051.176.051.184.055.188.059.188.055.188.059.188.063.191Zm-.812-3.324a.349.349,0,0,1-.691.1l-.012-.086-.02-.172-.023-.176-.02-.168-.023-.172-.016-.168-.012-.172-.012-.172-.008-.137a.352.352,0,0,1,.7-.039l0,.137.012.16.016.16.012.156.016.168.02.164.02.168.023.168Zm-.094-3.395a.347.347,0,0,1-.383.309.36.36,0,0,1-.312-.391l.012-.082.023-.148.016-.145.02-.148.023-.145.023-.145.027-.141.023-.141.031-.141.035-.141.008-.043a.347.347,0,0,1,.422-.254.338.338,0,0,1,.254.418l-.008.035-.023.129-.031.137-.023.125-.023.137-.027.137-.023.133-.016.137-.02.145-.016.133Zm.887-3.238a.349.349,0,1,1-.625-.309l.031-.074.063-.113.059-.117.059-.109.063-.113.063-.109.063-.105.07-.113.066-.1.066-.109.07-.1.059-.086a.342.342,0,0,1,.48-.086.348.348,0,0,1,.09.484l-.051.082-.066.094-.059.1-.062.094-.062.105-.059.094-.055.105-.059.1-.059.105-.051.1-.055.109Zm2.023-2.637a.36.36,0,0,1-.5-.043.357.357,0,0,1,.047-.5h0l.086-.074.09-.074.094-.07.094-.07.094-.074.09-.062.1-.07.094-.066.105-.062.094-.062.1-.059.1-.062.051-.027a.35.35,0,0,1,.344.609l-.043.023-.086.055-.1.055-.086.059-.09.055-.086.066-.09.055-.086.063-.086.066-.086.063-.082.063-.086.074-.082.066Zm2.934-1.523a.349.349,0,0,1-.422-.254.343.343,0,0,1,.254-.422l.039-.012.113-.031.109-.023.113-.023.109-.023.117-.023.113-.016.113-.02.113-.016.113-.016.117-.012.109-.016.117-.012h.035a.347.347,0,0,1,.375.32.354.354,0,0,1-.328.375l-.027,0-.1.008-.109.012-.1.012-.105.012-.1.016-.105.016-.1.023-.105.02-.1.02-.105.02-.1.027-.1.023Zm3.316-.117a.358.358,0,0,1-.281-.414.349.349,0,0,1,.406-.277l.105.02.113.023.117.023.117.023.113.035.117.027.113.027.113.035.121.035.109.035.113.039.117.039.031.016a.345.345,0,0,1,.215.445.35.35,0,0,1-.453.207l-.027-.008-.1-.039-.109-.031-.1-.031-.105-.031-.109-.035-.105-.031-.105-.023-.105-.027-.109-.023-.1-.023-.113-.02Zm3.09,1.242a.354.354,0,0,1-.1-.488.347.347,0,0,1,.484-.094l.016.008.105.07.109.074.1.07.109.078.1.078.105.078.1.086.1.078.1.086.105.086.094.082a.352.352,0,0,1,.027.5.343.343,0,0,1-.492.027l-.094-.074-.086-.082-.1-.078-.094-.082-.094-.07-.1-.074-.094-.078-.1-.07-.1-.062-.1-.07-.094-.066Zm2.434,2.309a.347.347,0,0,1,.07-.492.357.357,0,0,1,.488.074l.039.047.082.117.086.121.082.121.086.121.078.125.078.129.086.125.074.129.082.129.023.039a.35.35,0,0,1-.137.473.34.34,0,0,1-.473-.133l-.016-.027-.078-.121-.07-.121-.082-.125-.07-.113-.078-.121-.082-.109-.074-.117-.082-.117-.082-.105Z" transform="translate(-47600.578 -57116.48)" fill="#7f2854"/>
            <path id="Path_9773" data-name="Path 9773" d="M28727.182,86876.352a.351.351,0,0,1-.641-.289l.012-.023.012-.023.014-.031.016-.031.012-.016.016-.031.014-.031.014-.039.016-.016.018-.031.016-.023.016-.023.018-.031.018-.031.016-.016.021-.031.018-.023.018-.023.02-.031.02-.023.02-.023.02-.031.021-.031.02-.023.02-.023.023-.023.021-.031.021-.016.021-.031.023-.016.021-.031.023-.016.023-.031.023-.023.023-.023.023-.016.023-.031.027-.016.023-.039.025-.016.025-.031.025-.016.027-.016.025-.031.025-.016.029-.023.025-.023.025-.016,0-.008a.361.361,0,0,1,.49.055.351.351,0,0,1-.059.492h0l-.025.016-.021.016-.021.031-.021.023-.023.016-.021.016-.02.016-.021.016-.02.023-.021.023-.02.016-.02.016-.02.016-.02.023-.021.023-.018.016-.018.016-.02.023-.016.023-.021.016-.016.016-.016.023-.018.023-.018.023-.016.016-.018.016-.014.031-.014.016-.016.016-.016.023-.014.016-.014.023-.014.016-.016.016-.012.031-.012.016-.012.016-.012.023-.012.016-.012.023-.014.016-.008.023-.012.031-.01.016-.01.016-.008.016-.008.023Zm6.25,3.313a.349.349,0,1,1-.7.031l0-.078v-.031a.349.349,0,1,1,.7-.031v.031Zm-.275-2.242a.349.349,0,0,1-.68.156l0-.016-.012-.055-.018-.055-.014-.07-.016-.062-.014-.047-.016-.062-.016-.055-.02-.055-.016-.047-.018-.07-.016-.047-.018-.047-.018-.055-.02-.055-.018-.047-.02-.047-.018-.047-.018-.055-.021-.047-.02-.047-.02-.047-.02-.047-.02-.031-.018-.039a.35.35,0,0,1,.168-.469.342.342,0,0,1,.463.172l.02.031.023.055.025.047.021.055.021.055.021.063.021.047.021.047.02.063.023.055.018.055.021.063.02.063.018.055.02.063.02.055.016.055.02.07.018.063.016.063.016.063.016.063.016.07.018.063Zm-1.99-3.094a.347.347,0,0,1,.15.469.357.357,0,0,1-.471.148h-.006l-.025-.016-.029-.016-.027-.016-.025-.016h-.027l-.027-.016-.027-.016h-.027l-.027-.016-.029-.016h-.027l-.027-.016-.029-.008-.027-.008h-.027l-.027-.016h-.029l-.027-.016h-.057l-.027-.016h-.055l-.031-.016h-.113l-.027-.008-.033-.008h-.32a.352.352,0,0,1-.375-.32.337.337,0,0,1,.322-.367l.012-.008h.035l.039-.008h.26l.039.008h.037l.035.008h.113l.039.008.037.008h.039l.035.016h.039l.037.008.037.008.039.016h.035l.039.016h.037l.037.016.037.008.037.016.035.008.041.016.035.016.035.008.037.016.037.016.037.016.037.016.035.016.037.031.035.016.035.016Z" transform="translate(-28724.527 -86855.469)" fill="#7f2854"/>
          </g>
          <g id="Group_876" data-name="Group 876">
            <path id="Path_9774" data-name="Path 9774" d="M31893.15,51078a1.145,1.145,0,0,1,.813.332h0a1.155,1.155,0,0,1,0,1.629h0a1.16,1.16,0,0,1-1.625,0h0a1.149,1.149,0,0,1-.338-.812,1.165,1.165,0,0,1,.336-.816h0A1.141,1.141,0,0,1,31893.15,51078Zm.441.7a.633.633,0,0,0-.441-.184.64.64,0,0,0-.441.184h0a.637.637,0,0,0,0,.887h0a.636.636,0,0,0,.441.18.613.613,0,0,0,.441-.18h0a.627.627,0,0,0,0-.887Z" transform="translate(-31885.727 -51058.734)" fill="#96999c"/>
            <path id="Path_9775" data-name="Path 9775" d="M51499.8,84633.055a.517.517,0,0,1-.594-.445.531.531,0,0,1,.441-.594,17.52,17.52,0,0,0,4.367-1.3,11.92,11.92,0,0,0,3.34-2.094.521.521,0,0,1,.742.023.529.529,0,0,1-.031.742,13.427,13.427,0,0,1-3.629,2.289A18.921,18.921,0,0,1,51499.8,84633.055Zm9.59-5.289a.527.527,0,0,1-.719.18.52.52,0,0,1-.187-.711,4.635,4.635,0,0,0,.227-.437c.066-.156.121-.3.168-.445a.521.521,0,1,1,1,.3,5.816,5.816,0,0,1-.207.555A5.246,5.246,0,0,1,51509.387,84627.766Z" transform="translate(-51485.523 -84594.055)" fill="#96999c"/>
            <path id="Path_9776" data-name="Path 9776" d="M15265.5,21.914a14.921,14.921,0,0,1-.556-4.045,14.72,14.72,0,0,1,4.5-10.611,16.7,16.7,0,0,1,11.092-4.657,15.937,15.937,0,0,1,8.051,1.764,14.838,14.838,0,0,1,5.836,5.543,17.757,17.757,0,0,1,2.417,8.546,28.932,28.932,0,0,1-3.668,14.32l.967,15.017a.525.525,0,0,1-.489.555h-16.466a.523.523,0,0,1-.523-.524v-.006l-.349-6.23c-.6-.011-1.9-.026-4.592-.026-3.733,0-4.273-2.028-4.273-3.271a4.459,4.459,0,0,1,.075-.793l0-.02a6.55,6.55,0,0,0-.4-1.12c-.35-.861-.678-1.673-.044-1.927l.449-.18-.941-.066a.522.522,0,0,1-.487-.486l-.313-2.939-2.272-.347a1.056,1.056,0,0,1-.436-.169,1.06,1.06,0,0,1-.4-1.246c.343-.935,1.03-2.786,1.714-4.495C15264.8,23.508,15265.188,22.572,15265.5,21.914Zm.634-2.048a13.7,13.7,0,0,0,.418,1.921.521.521,0,0,1-.025.411c-.321.648-.74,1.638-1.163,2.694-.665,1.662-1.355,3.523-1.7,4.466a.018.018,0,0,0,0,.018h.006l2.673.408h0a.524.524,0,0,1,.442.462l.311,2.923,2.778.2h0a.523.523,0,0,1,.159,1.007c-2.469,1.008-2.277.756-1.939,1.59a4.134,4.134,0,0,1,.463,1.689l0,.02a3.527,3.527,0,0,0-.058.617c0,.845.407,2.223,3.225,2.223,3.976,0,4.965.037,5.092.043a.524.524,0,0,1,.518.494l.349,6.25h15.381l-.939-14.6s.05-.256.06-.277a27.974,27.974,0,0,0,3.617-13.928,16.719,16.719,0,0,0-2.27-8.046,13.789,13.789,0,0,0-5.425-5.154,14.911,14.911,0,0,0-7.528-1.646,15.662,15.662,0,0,0-10.4,4.363,13.679,13.679,0,0,0-4.185,9.861A13.954,13.954,0,0,0,15266.138,19.866Z" transform="translate(-15262.617 -2.589)" fill="#96999c"/>
          </g>
        </g>
      </g>
    </g>
  </g>
</svg>
