<svg xmlns="http://www.w3.org/2000/svg" xmlns:xlink="http://www.w3.org/1999/xlink" width="100" height="100" viewBox="0 0 100 100">
  <defs>
    <filter id="Ellipse_6" x="0" y="0" width="100" height="100" filterUnits="userSpaceOnUse">
      <feOffset input="SourceAlpha"/>
      <feGaussianBlur stdDeviation="5" result="blur"/>
      <feFlood flood-opacity="0.071"/>
      <feComposite operator="in" in2="blur"/>
      <feComposite in="SourceGraphic"/>
    </filter>
  </defs>
  <g id="Group_861" data-name="Group 861" transform="translate(-626 -112)">
    <g transform="matrix(1, 0, 0, 1, 626, 112)" filter="url(#Ellipse_6)">
      <circle id="Ellipse_6-2" data-name="Ellipse 6" cx="35" cy="35" r="35" transform="translate(15 15)" fill="#fff"/>
    </g>
    <g id="Layer_x0020_1" transform="translate(653.233 139.233)">
      <g id="_253025272">
        <g id="Group_863" data-name="Group 863" transform="translate(4.491 0.001)">
          <path id="Path_9713" data-name="Path 9713" d="M12955.2,41201.738a.355.355,0,0,1-.322.375.35.35,0,0,1-.371-.324c0-.055-1.316-19.719-14.91-13.2a.346.346,0,0,1-.3-.625C12953.813,41181,12955.189,41201.68,12955.2,41201.738Z" transform="translate(-12934.232 -41156.754)" fill="#7f2854"/>
          <path id="Path_9714" data-name="Path 9714" d="M8310.972,34264.992a.354.354,0,0,1-.469-.141.343.343,0,0,1,.141-.469c.15-.086.335-.2.55-.32a17.878,17.878,0,0,1,4.085-1.867c3.845-1.1,8.869-.379,11.722,9.625a.348.348,0,0,1-.667.2c-2.7-9.453-7.329-10.164-10.864-9.152a17.372,17.372,0,0,0-3.929,1.8C8311.318,34264.8,8311.128,34264.906,8310.972,34264.992Z" transform="translate(-8308.943 -34237.043)" fill="#7f2854"/>
          <path id="Path_9715" data-name="Path 9715" d="M6240.236,32.329c.021-.022,7.641-7.352,6.786-16.745a14.343,14.343,0,0,0-.428-2.413,14.165,14.165,0,0,0-6.038-8.236,16.3,16.3,0,0,0-10.377-2.5,17.743,17.743,0,0,0-2.961.529,16.084,16.084,0,0,0-7.553,4.226,12.455,12.455,0,0,0-3.6,7.114,9.719,9.719,0,0,0,.225,1.648c.295,1.609.683,3.718.032,5.4a21.025,21.025,0,0,1-2.05,3.531c-.915,1.378-1.756,2.645-1.66,3.01h0c.194.7,2.522.86,2.528.86a.521.521,0,0,1,.485.544c0,.22-.022,1.254-.523,1.626a.052.052,0,0,1,.022.043.968.968,0,0,0,.14.368,1.188,1.188,0,0,0,.273.317h0a5.445,5.445,0,0,0,1.409.706.521.521,0,0,1-.064,1.006c-.105.026-.624.173-.572.455a1.083,1.083,0,0,0,.275.618.955.955,0,0,0,.622.2h0a2.013,2.013,0,0,0,.621-.077c.552-.14.808-.205,1.041.469l.223.444a.517.517,0,0,1,.022.413,5.16,5.16,0,0,0-.12,3.385,1.75,1.75,0,0,0,1.041,1.081,3.039,3.039,0,0,0,1.536-.093c1.3-.325,3.848-1.054,3.854-1.056a.521.521,0,0,1,.644.359.453.453,0,0,1,.02.124l.447,6.136h16.949L6240.1,32.833A.518.518,0,0,1,6240.236,32.329Zm7.82-16.839c.813,8.935-5.612,16.057-6.881,17.367l3.478,13.3a.512.512,0,0,1,.03.174.521.521,0,0,1-.521.521h-18.106a.52.52,0,0,1-.519-.484l-.437-6c-.84.237-2.35.659-3.272.89a3.934,3.934,0,0,1-2.081.08,2.723,2.723,0,0,1-1.7-1.651,5.969,5.969,0,0,1,.021-3.957l-.074-.148a2.8,2.8,0,0,1-.829.082,1.937,1.937,0,0,1-1.284-.469,2.057,2.057,0,0,1-.593-1.2,1.179,1.179,0,0,1,.325-1.084,4.437,4.437,0,0,1-.728-.458h0a2.251,2.251,0,0,1-.517-.589,2.044,2.044,0,0,1-.281-.78,1.091,1.091,0,0,1,.2-.827.833.833,0,0,1,.221-.2c.042-.026.063-.173.072-.331-.884-.125-2.679-.506-2.973-1.568h0c-.225-.818.741-2.275,1.793-3.86a20.625,20.625,0,0,0,1.949-3.331c.544-1.4.187-3.35-.086-4.834a9.878,9.878,0,0,1-.239-1.872,13.6,13.6,0,0,1,3.895-7.8,17.113,17.113,0,0,1,8.033-4.507,18.775,18.775,0,0,1,3.132-.557,17.328,17.328,0,0,1,11.036,2.662,15.206,15.206,0,0,1,6.479,8.843A15.368,15.368,0,0,1,6248.057,15.491Z" transform="translate(-6211.577 -1.326)" fill="#96999c"/>
        </g>
        <path id="Path_9716" data-name="Path 9716" d="M0,0H45.533V45.533H0Z" fill="none" fill-rule="evenodd"/>
      </g>
    </g>
  </g>
</svg>
