<svg xmlns="http://www.w3.org/2000/svg" xmlns:xlink="http://www.w3.org/1999/xlink" width="100" height="100" viewBox="0 0 100 100">
  <defs>
    <filter id="Ellipse_6" x="0" y="0" width="100" height="100" filterUnits="userSpaceOnUse">
      <feOffset input="SourceAlpha"/>
      <feGaussianBlur stdDeviation="5" result="blur"/>
      <feFlood flood-opacity="0.071"/>
      <feComposite operator="in" in2="blur"/>
      <feComposite in="SourceGraphic"/>
    </filter>
  </defs>
  <g id="Group_872" data-name="Group 872" transform="translate(-626 -112)">
    <g transform="matrix(1, 0, 0, 1, 626, 112)" filter="url(#Ellipse_6)">
      <circle id="Ellipse_6-2" data-name="Ellipse 6" cx="35" cy="35" r="35" transform="translate(15 15)" fill="#fff"/>
    </g>
    <g id="Layer_x0020_1" transform="translate(654.571 140.571)">
      <g id="_255804320">
        <g id="Group_874" data-name="Group 874" transform="translate(5.178 0.082)">
          <path id="Path_9758" data-name="Path 9758" d="M64342.25,171758.469a.25.25,0,0,1,0-.5h10.449a.25.25,0,0,1,0,.5Zm13.4,0a.25.25,0,0,1,0-.5h6.363a.25.25,0,0,1,0,.5Z" transform="translate(-64336.453 -171729.406)" fill="#96999c"/>
          <path id="Path_9759" data-name="Path 9759" d="M64342.25,191606.516a.243.243,0,0,1-.246-.234.246.246,0,0,1,.246-.25h3.469a.248.248,0,0,1,.246.25.245.245,0,0,1-.246.234Zm6.414,0a.245.245,0,0,1-.246-.234.248.248,0,0,1,.246-.25h13.348a.246.246,0,0,1,.246.25.243.243,0,0,1-.246.234Z" transform="translate(-64336.453 -191574.156)" fill="#96999c"/>
          <path id="Path_9760" data-name="Path 9760" d="M65138.246,212337.516a.259.259,0,0,1-.242-.266.256.256,0,0,1,.242-.25h7.652a.256.256,0,0,1,.246.25.26.26,0,0,1-.246.266Zm10.6,0a.26.26,0,0,1-.246-.266.256.256,0,0,1,.246-.25h4.188a.252.252,0,0,1,.238.25.256.256,0,0,1-.238.266Z" transform="translate(-65132.316 -212301.672)" fill="#96999c"/>
          <path id="Path_9761" data-name="Path 9761" d="M89909.469,62068a6.462,6.462,0,1,1-4.578,1.895A6.443,6.443,0,0,1,89909.469,62068Zm4.094,2.359a5.8,5.8,0,0,0-9.906,4.109,5.8,5.8,0,0,0,9.906,4.1,5.8,5.8,0,0,0,0-8.211Z" transform="translate(-89893.18 -62057.73)" fill="#7f2854"/>
          <path id="Path_9762" data-name="Path 9762" d="M102964.156,75126h2.25a.33.33,0,0,1,.32.336v2.5h2.508a.323.323,0,0,1,.32.328v2.242a.325.325,0,0,1-.32.336h-2.508v2.5a.329.329,0,0,1-.32.328h-2.25a.33.33,0,0,1-.328-.328v-2.5h-2.5a.333.333,0,0,1-.336-.336v-2.242a.332.332,0,0,1,.336-.328h2.5v-2.5A.332.332,0,0,1,102964.156,75126Zm1.906.656h-1.578v2.508a.32.32,0,0,1-.328.328h-2.508v1.586h2.508a.325.325,0,0,1,.328.328v2.508h1.578v-2.508a.339.339,0,0,1,.344-.328h2.5v-1.586h-2.5a.334.334,0,0,1-.344-.328Z" transform="translate(-102949 -75113.555)" fill="#7f2854"/>
          <path id="Path_9763" data-name="Path 9763" d="M66058.25,151910.5a.244.244,0,0,1-.25-.234.26.26,0,0,1,.25-.266h10.453a.259.259,0,0,1,.234.266.24.24,0,0,1-.234.234Zm13.4,0a.251.251,0,0,1-.258-.234.267.267,0,0,1,.258-.266h6.359a.259.259,0,0,1,.242.266.242.242,0,0,1-.242.234Z" transform="translate(-66052.164 -151884.75)" fill="#96999c"/>
          <g id="Group_873" data-name="Group 873">
            <path id="Path_9764" data-name="Path 9764" d="M31052.557,23541h7.148v.982h-7.148a2.581,2.581,0,0,0-2.572,2.574v31.738a2.577,2.577,0,0,0,2.572,2.574h25.391a2.581,2.581,0,0,0,2.574-2.574v-31.738a2.584,2.584,0,0,0-2.574-2.574h-6.324V23541h6.324a3.568,3.568,0,0,1,3.557,3.557v31.738a3.564,3.564,0,0,1-3.557,3.555h-25.391a3.561,3.561,0,0,1-3.555-3.555v-31.738a3.564,3.564,0,0,1,3.555-3.557Z" transform="translate(-31049.002 -23537.152)" fill="#96999c"/>
            <path id="Path_9765" data-name="Path 9765" d="M116377,498.3l.281-2.472a1.9,1.9,0,0,1,.688-1.324,2.467,2.467,0,0,1,2.984,0,1.9,1.9,0,0,1,.688,1.324l.281,2.472-.648.072-.273-2.472a1.292,1.292,0,0,0-.469-.892,1.795,1.795,0,0,0-2.141,0,1.256,1.256,0,0,0-.461.892l-.273,2.472Z" transform="translate(-116362.773 -494)" fill="#7f2854"/>
            <path id="Path_9766" data-name="Path 9766" d="M47139.836,35829.656a.328.328,0,0,1,0-.656h5.762a1.547,1.547,0,0,1,1.543,1.543v26.1a.328.328,0,1,1-.656,0v-26.1a.887.887,0,0,0-.887-.887Zm1.25,32.391a.328.328,0,0,1,0,.656h-19.547a1.528,1.528,0,0,1-1.09-.445v0a1.559,1.559,0,0,1-.449-1.1h0v-30.617a1.516,1.516,0,0,1,.453-1.086,1.562,1.562,0,0,1,1.086-.457h6.641a.328.328,0,1,1,0,.656h-6.637v0a.934.934,0,0,0-.629.266.876.876,0,0,0-.258.625v30.617h0a.884.884,0,0,0,.262.637h0a.866.866,0,0,0,.625.25Z" transform="translate(-47117.316 -35823.105)" fill="#96999c"/>
            <g id="Group_872-2" data-name="Group 872" transform="translate(10.37 3.844)">
              <path id="Path_9767" data-name="Path 9767" d="M93239.633,23541.488v1.848a2.344,2.344,0,0,1-2.336,2.336h-7.953a2.344,2.344,0,0,1-2.344-2.336v-1.848c0-.375.148-.492.336-.492h11.969C93239.375,23541,93239.633,23541.113,93239.633,23541.488Zm-11.656.49v1.357a1.377,1.377,0,0,0,1.367,1.357h7.953a1.364,1.364,0,0,0,1.359-1.357v-1.357Z" transform="translate(-93227 -23540.996)" fill="#7f2854"/>
              <path id="Path_9768" data-name="Path 9768" d="M171588.375,199623h4.688a.344.344,0,0,1,.328.344.351.351,0,0,1-.094.219l-5.734,5.719a.3.3,0,0,1-.453,0,.253.253,0,0,1-.109-.219v-4.672a1.371,1.371,0,0,1,.406-.969h0A1.386,1.386,0,0,1,171588.375,199623Zm3.891.656h-3.891a.737.737,0,0,0-.5.219h0a.708.708,0,0,0-.219.516v3.891Z" transform="translate(-171573.922 -199593.625)" fill="#7f2854"/>
            </g>
          </g>
        </g>
        <path id="Path_9769" data-name="Path 9769" d="M0,0H42.858V42.858H0Z" fill="none" fill-rule="evenodd"/>
      </g>
    </g>
  </g>
</svg>
