<svg xmlns="http://www.w3.org/2000/svg" xmlns:xlink="http://www.w3.org/1999/xlink" width="100" height="100" viewBox="0 0 100 100">
  <defs>
    <filter id="Ellipse_6" x="0" y="0" width="100" height="100" filterUnits="userSpaceOnUse">
      <feOffset input="SourceAlpha"/>
      <feGaussianBlur stdDeviation="5" result="blur"/>
      <feFlood flood-opacity="0.071"/>
      <feComposite operator="in" in2="blur"/>
      <feComposite in="SourceGraphic"/>
    </filter>
  </defs>
  <g id="Group_864" data-name="Group 864" transform="translate(-626 -112)">
    <g transform="matrix(1, 0, 0, 1, 626, 112)" filter="url(#Ellipse_6)">
      <circle id="Ellipse_6-2" data-name="Ellipse 6" cx="35" cy="35" r="35" transform="translate(15 15)" fill="#fff"/>
    </g>
    <g id="Layer_x0020_1" transform="translate(652.585 138.585)">
      <g id="_339943648">
        <g id="Group_858" data-name="Group 858" transform="translate(0 2.294)">
          <path id="Path_2640" data-name="Path 2640" d="M28.042,42799a.538.538,0,0,1,.536.539.532.532,0,0,1-.536.531H.536a.532.532,0,0,1-.536-.531.538.538,0,0,1,.536-.539Z" transform="translate(0 -42769.473)" fill="#96999c"/>
          <path id="Path_2641" data-name="Path 2641" d="M26818.484,11373.725a.534.534,0,0,1-.75-.062.526.526,0,0,1,.066-.756,12.221,12.221,0,1,1,7.906,21.539.538.538,0,0,1,0-1.076,11.151,11.151,0,1,0-7.223-19.645Z" transform="translate(-26797.666 -11363.839)" fill="#96999c"/>
          <path id="Path_2642" data-name="Path 2642" d="M32885.766,20955a4.761,4.761,0,1,1-3.367,1.391A4.765,4.765,0,0,1,32885.766,20955Zm2.6,2.148a3.67,3.67,0,0,0-2.6-1.074,3.684,3.684,0,1,0,3.68,3.684A3.659,3.659,0,0,0,32888.367,20957.148Z" transform="translate(-32856.551 -20941.711)" fill="#7f2854"/>
          <path id="Path_2643" data-name="Path 2643" d="M2.537,23360.8l19.839-1.785c.112-.008.206-.016.284-.016a3.331,3.331,0,0,1,2.378,1.035,3.891,3.891,0,0,1,1.094,2.371c.012.121.017.238.017.336v3.188a.538.538,0,0,1-.536.539H2.536a.538.538,0,0,1-.536-.539v-4.594a.535.535,0,0,1,.536-.535Zm19.93-.723-19.395,1.746v3.566h22v-2.648c0-.1,0-.184-.008-.246a2.817,2.817,0,0,0-.793-1.711,2.26,2.26,0,0,0-1.616-.711C22.581,23360.074,22.516,23360.078,22.467,23360.078Z" transform="translate(-1.999 -23343.922)" fill="#7f2854"/>
          <g id="Group_857" data-name="Group 857" transform="translate(0.181)">
            <path id="Path_2644" data-name="Path 2644" d="M244.358,34522h32.584a.36.36,0,0,1,.358.359.369.369,0,0,1-.028.145,3.863,3.863,0,0,1-2,2.332,7.245,7.245,0,0,1-3.461.633H244.358a.358.358,0,0,1-.358-.359v-2.75A.36.36,0,0,1,244.358,34522Zm32.06.715h-31.7v2.047h27.105a6.805,6.805,0,0,0,3.133-.551A3.172,3.172,0,0,0,276.418,34522.711Z" transform="translate(-244 -34498.621)" fill="#96999c" stroke="#96999c" stroke-width="0.3"/>
            <path id="Path_2645" data-name="Path 2645" d="M14622.448,34415.578a.536.536,0,1,1,1.07.055l-.842,16.383a2.107,2.107,0,0,1-2.1,2H14591.3a2.1,2.1,0,0,1-2.1-1.926l-.877-10.09a.537.537,0,0,1,.49-.582.527.527,0,0,1,.578.48l.879,10.1a1.012,1.012,0,0,0,1.029.945h29.271a1.013,1.013,0,0,0,.715-.285,1.025,1.025,0,0,0,.322-.7Z" transform="translate(-14577.657 -34391.77)" fill="#96999c"/>
            <path id="Path_2646" data-name="Path 2646" d="M16585.285,14805.787a.534.534,0,1,1,.031-1.068l7.719.227a.535.535,0,0,1,.523.549.542.542,0,0,1-.553.521Z" transform="translate(-16572.615 -14796.004)" fill="#a7a9ac"/>
            <path id="Path_2647" data-name="Path 2647" d="M16584.566,3094.526a.535.535,0,0,1-.734.182.529.529,0,0,1-.184-.735,18.642,18.642,0,0,1,6.777-6.583,18.54,18.54,0,1,1,9.105,34.691.537.537,0,0,1,0-1.073,17.472,17.472,0,1,0-14.965-26.48Z" transform="translate(-16571.418 -3085)" fill="#96999c"/>
          </g>
          <path id="Path_2648" data-name="Path 2648" d="M8733.409,27480.361a.538.538,0,0,1-.3,1.031,1.54,1.54,0,0,1-.94-.848,2.2,2.2,0,0,1-.186-.758,2.174,2.174,0,0,1,.087-.777,1.791,1.791,0,0,1,.965-1.141.475.475,0,0,1,.186-.055h0l11.862-.895a.544.544,0,0,1,.575.5.527.527,0,0,1-.5.566l-11.752.891a.769.769,0,0,0-.312.441,1.142,1.142,0,0,0,.042.773A.468.468,0,0,0,8733.409,27480.361Z" transform="translate(-8725.479 -27458.781)" fill="#7f2854"/>
        </g>
        <path id="Path_2649" data-name="Path 2649" d="M1,0H47.83V46.83H1Z" transform="translate(-0.999)" fill="none" fill-rule="evenodd"/>
      </g>
    </g>
  </g>
</svg>
