<svg xmlns="http://www.w3.org/2000/svg" xmlns:xlink="http://www.w3.org/1999/xlink" width="100" height="100" viewBox="0 0 100 100">
  <defs>
    <filter id="Ellipse_6" x="0" y="0" width="100" height="100" filterUnits="userSpaceOnUse">
      <feOffset input="SourceAlpha"/>
      <feGaussianBlur stdDeviation="5" result="blur"/>
      <feFlood flood-opacity="0.071"/>
      <feComposite operator="in" in2="blur"/>
      <feComposite in="SourceGraphic"/>
    </filter>
  </defs>
  <g id="Group_861" data-name="Group 861" transform="translate(-626 -112)">
    <g transform="matrix(1, 0, 0, 1, 626, 112)" filter="url(#Ellipse_6)">
      <circle id="Ellipse_6-2" data-name="Ellipse 6" cx="35" cy="35" r="35" transform="translate(15 15)" fill="#fff"/>
    </g>
    <g id="Layer_x0020_1" transform="translate(657.035 143.035)">
      <g id="_347743848">
        <g id="Group_871" data-name="Group 871" transform="translate(0 0.318)">
          <g id="Group_869" data-name="Group 869">
            <path id="Path_9737" data-name="Path 9737" d="M40240.434,40959.754a.219.219,0,0,1-.437,0v-5.539a.219.219,0,1,1,.438,0Z" transform="translate(-40208.98 -40922.746)" fill="#7f2854"/>
            <path id="Path_9738" data-name="Path 9738" d="M28120.6,37767.289a.289.289,0,1,1,.578,0v2.387a.289.289,0,0,1-.287.293h-3.6a.29.29,0,0,1-.291-.293v-2.387a.291.291,0,0,1,.582,0v2.1h3.016Z" transform="translate(-28095.324 -37738.207)" fill="#7f2854"/>
            <path id="Path_9739" data-name="Path 9739" d="M29732.264,40960.246a.218.218,0,0,1-.4.184,6.991,6.991,0,0,1-.646-2.777,6.9,6.9,0,0,1,.646-2.937.221.221,0,0,1,.287-.113.224.224,0,0,1,.109.293,6.388,6.388,0,0,0-.607,2.754A6.481,6.481,0,0,0,29732.264,40960.246Z" transform="translate(-29708.303 -40923.336)" fill="#7f2854"/>
            <path id="Path_9740" data-name="Path 9740" d="M37817.59,37767.289a.3.3,0,0,1,.293-.289.294.294,0,0,1,.289.289v2.387a.292.292,0,0,1-.289.293h-3.594a.29.29,0,0,1-.293-.293v-2.387a.291.291,0,0,1,.582,0v2.1h3.012Z" transform="translate(-37784.852 -37738.207)" fill="#7f2854"/>
            <path id="Path_9741" data-name="Path 9741" d="M3.809,412H34.122a3.819,3.819,0,0,1,3.809,3.809v21.9a3.817,3.817,0,0,1-3.809,3.808H3.809A3.817,3.817,0,0,1,0,437.711v-21.9A3.819,3.819,0,0,1,3.809,412Zm30.314.871H3.809a2.948,2.948,0,0,0-2.938,2.938v21.9a2.946,2.946,0,0,0,2.938,2.937H34.122a2.945,2.945,0,0,0,2.937-2.937v-21.9a2.946,2.946,0,0,0-2.937-2.938Z" transform="translate(0 -412)" fill="#96999c"/>
            <path id="Path_9742" data-name="Path 9742" d="M9954.218,4908h26.815a.219.219,0,0,1,.219.218v21.635a.218.218,0,0,1-.219.218h-26.815a.218.218,0,0,1-.218-.218v-21.635A.218.218,0,0,1,9954.218,4908Zm26.6.436h-26.38v21.2h26.38Z" transform="translate(-9946.327 -4904.534)" fill="#96999c"/>
            <path id="Path_9743" data-name="Path 9743" d="M11472.713,37767.289a.29.29,0,0,1,.579,0v2.387a.29.29,0,0,1-.291.293h-9.71a.291.291,0,0,1-.292-.293v-2.387a.292.292,0,0,1,.583,0v2.1h9.131Z" transform="translate(-11454.163 -37738.207)" fill="#96999c"/>
            <path id="Path_9744" data-name="Path 9744" d="M14473.08,40860.289a.291.291,0,1,1,.581,0v5.535a.29.29,0,0,1-.291.289h-5.08a.289.289,0,0,1-.29-.289v-5.535a.29.29,0,1,1,.58,0v5.246h4.5Z" transform="translate(-14456.849 -40828.816)" fill="#96999c"/>
            <path id="Path_9745" data-name="Path 9745" d="M113.336,42863.535a.213.213,0,0,1,.218.215.218.218,0,0,1-.218.219H102.217a.218.218,0,0,1-.217-.219v-2.531a.218.218,0,0,1,.217-.219h11.119a.218.218,0,0,1,.218.219.221.221,0,0,1-.218.219h-10.9v2.1Z" transform="translate(-101.921 -42828.281)" fill="#96999c"/>
            <path id="Path_9746" data-name="Path 9746" d="M3234.217,5937H3237a.218.218,0,0,1,.217.219v1.42a.217.217,0,0,1-.217.218h-2.782a.217.217,0,0,1-.217-.218v-1.42A.218.218,0,0,1,3234.217,5937Zm2.564.437h-2.345v.984h2.345Z" transform="translate(-3231.507 -5932.741)" fill="#96999c"/>
            <path id="Path_9747" data-name="Path 9747" d="M3234.217,12311H3237a.217.217,0,0,1,.217.218v1.42a.218.218,0,0,1-.217.218h-2.782a.218.218,0,0,1-.217-.218v-1.42A.217.217,0,0,1,3234.217,12311Zm2.564.436h-2.345v.984h2.345Z" transform="translate(-3231.507 -12301.827)" fill="#96999c"/>
            <path id="Path_9748" data-name="Path 9748" d="M3234.217,18685H3237a.216.216,0,0,1,.217.219v1.422a.218.218,0,0,1-.217.215h-2.782a.218.218,0,0,1-.217-.215v-1.422A.216.216,0,0,1,3234.217,18685Zm2.564.434h-2.345v.984h2.345Z" transform="translate(-3231.507 -18670.914)" fill="#96999c"/>
            <path id="Path_9749" data-name="Path 9749" d="M2892.872,23375a1.877,1.877,0,1,1-1.324.551A1.864,1.864,0,0,1,2892.872,23375Zm.914.959a1.3,1.3,0,1,0,0,1.826,1.28,1.28,0,0,0,.378-.91A1.294,1.294,0,0,0,2893.786,23375.957Z" transform="translate(-2888.771 -23357.299)" fill="#96999c"/>
            <path id="Path_9750" data-name="Path 9750" d="M3806.167,30529a1.165,1.165,0,0,1,.825.342h0a1.164,1.164,0,0,1,0,1.65h0a1.163,1.163,0,0,1-1.651,0h0a1.167,1.167,0,0,1,.825-1.992Zm.518.65a.731.731,0,0,0-1.035,0,.728.728,0,0,0-.215.518.734.734,0,0,0,1.25.52h0a.736.736,0,0,0,.214-.52.728.728,0,0,0-.215-.518h0Z" transform="translate(-3802.067 -30505.783)" fill="#96999c"/>
            <path id="Path_9751" data-name="Path 9751" d="M13198.289,8601.74a.291.291,0,0,1,0-.581h3.221l.545-1.318a.384.384,0,0,1,.5-.211.139.139,0,0,1,.027.013.4.4,0,0,1,.1.074.339.339,0,0,1,.063.085.247.247,0,0,1,.025.054l.72,1.816.527-.893.016-.023a.388.388,0,0,1,.515-.11.349.349,0,0,1,.075.06h0a.311.311,0,0,1,.06.08l0,0,.274.421.444-.471a.393.393,0,0,1,.27-.123.383.383,0,0,1,.274.105l.009.006h0a.315.315,0,0,1,.029.033l.006.008h0l0,.007a.375.375,0,0,1,.034.053l.186.334h6.067l.544-1.317.012-.024a.391.391,0,0,1,.2-.188.383.383,0,0,1,.292,0h0a.169.169,0,0,1,.035.018.324.324,0,0,1,.1.07.339.339,0,0,1,.063.085.305.305,0,0,1,.026.054l.719,1.816.527-.893a.29.29,0,0,1,.5.3l-.821,1.389a.29.29,0,0,1-.525-.027l-.768-1.935-.437,1.057a.289.289,0,0,1-.268.18h-6.409a.289.289,0,0,1-.273-.147l-.151-.266-.514.548h0a.356.356,0,0,1-.053.046.29.29,0,0,1-.4-.087l-.32-.49-.662,1.122a.29.29,0,0,1-.526-.027l-.768-1.935-.426,1.034a.294.294,0,0,1-.277.2Z" transform="translate(-13187.827 -8593.289)" fill="#7f2854"/>
          </g>
          <path id="Path_9752" data-name="Path 9752" d="M13393.29,17306.381a.291.291,0,0,1,0-.582h2.979l.5-1.213a.368.368,0,0,1,.205-.205.377.377,0,0,1,.288,0h0a.408.408,0,0,1,.125.086h0a.328.328,0,0,1,.067.092.279.279,0,0,1,.023.061l.649,1.633.467-.793a.244.244,0,0,1,.018-.023m-2.154.947h-3.171m3.449-.205a.292.292,0,0,1-.278.205m.655-1.117-.377.912m1.072.838-.7-1.75m1.212,1.791a.27.27,0,0,1-.143.119.284.284,0,0,1-.374-.16m1.121-.984-.6,1.027v0m.5-1.771v0a.386.386,0,0,1,.287.045.368.368,0,0,1,.076.057h0a.6.6,0,0,1,.059.08l0,0,.24.369.394-.42a.387.387,0,0,1,.267-.119.382.382,0,0,1,.27.1.107.107,0,0,1,.021.021.3.3,0,0,1,.022.025l0,0a.32.32,0,0,1,.034.055l.168.3h5.61l.5-1.215a.372.372,0,0,1,.206-.205.377.377,0,0,1,.288,0h0a.38.38,0,0,1,.126.086h0a.294.294,0,0,1,.067.092.343.343,0,0,1,.026.061l.647,1.633.469-.793a.289.289,0,1,1,.5.295l-.77,1.3v0a.267.267,0,0,1-.142.119.286.286,0,0,1-.376-.16l-.694-1.75-.387.938a.291.291,0,0,1-.268.178h-5.953a.288.288,0,0,1-.273-.146l-.126-.223-.46.488a.282.282,0,0,1-.053.043.285.285,0,0,1-.4-.084l-.28-.428" transform="translate(-13382.676 -17291.332)" fill="none" fill-rule="evenodd"/>
          <g id="Group_870" data-name="Group 870" transform="translate(10.323 18.817)">
            <path id="Path_9753" data-name="Path 9753" d="M13393.29,24825.512a.289.289,0,1,1,0-.578h2.979l.5-1.215a.375.375,0,0,1,.2-.2v0a.357.357,0,0,1,.29,0l0,0a.456.456,0,0,1,.126.088.412.412,0,0,1,.067.092.26.26,0,0,1,.023.063l.649,1.631.467-.793a.14.14,0,0,0,.016-.023.36.36,0,0,1,.219-.148.14.14,0,0,1,.048-.01.373.373,0,0,1,.239.051.594.594,0,0,1,.076.057v0a.4.4,0,0,1,.059.076l0,0,.24.369.394-.42a.368.368,0,0,1,.267-.117.38.38,0,0,1,.27.1l.008.008v0a.212.212,0,0,1,.032.041h0l0,0a.237.237,0,0,1,.037.057l.168.3h5.61l.494-1.2a.317.317,0,0,1,.022-.053.394.394,0,0,1,.189-.17.368.368,0,0,1,.255-.012.165.165,0,0,1,.033.008.421.421,0,0,1,.127.088.318.318,0,0,1,.067.092.308.308,0,0,1,.026.063l.647,1.631.469-.793a.29.29,0,1,1,.5.3l-.77,1.3h0a.271.271,0,0,1-.142.121.289.289,0,0,1-.376-.16l-.694-1.752-.387.936a.29.29,0,0,1-.268.18h-5.953a.288.288,0,0,1-.273-.146l-.126-.221-.46.484a.313.313,0,0,1-.053.049.294.294,0,0,1-.4-.088l-.28-.428-.6,1.025h0a.273.273,0,0,1-.143.121.287.287,0,0,1-.374-.16l-.7-1.752-.377.916a.29.29,0,0,1-.278.2Zm4.168-1.822.016.033Zm10.016,0,.017.033Z" transform="translate(-13392.999 -24823.482)" fill="#7f2854"/>
          </g>
          <path id="Path_9754" data-name="Path 9754" d="M37460.219,8152.187a.218.218,0,1,1,0-.437h4.1a.218.218,0,1,1,0,.437Zm.168-1.752a.218.218,0,0,1,0-.435h1.742a.218.218,0,1,1,0,.435Zm0,.876a.218.218,0,0,1,0-.435h2.6a.218.218,0,1,1,0,.435Z" transform="translate(-37431.121 -8144.035)" fill="#7f2854"/>
          <path id="Path_9755" data-name="Path 9755" d="M37460.219,17485.188a.218.218,0,1,1,0-.436h4.1a.218.218,0,1,1,0,.436Zm.168-1.752a.218.218,0,0,1,0-.436h1.742a.218.218,0,1,1,0,.436Zm0,.879a.214.214,0,0,1-.215-.221.209.209,0,0,1,.215-.215h2.6a.216.216,0,0,1,.223.215.221.221,0,0,1-.223.221Z" transform="translate(-37431.121 -17469.84)" fill="#7f2854"/>
          <path id="Path_9756" data-name="Path 9756" d="M37460.219,26817.186a.218.218,0,1,1,0-.436h4.1a.218.218,0,1,1,0,.436Zm.168-1.752a.218.218,0,0,1,0-.436h1.742a.218.218,0,1,1,0,.436Zm0,.875a.211.211,0,0,1-.215-.217.214.214,0,0,1,.215-.219h2.6a.221.221,0,0,1,.223.219.218.218,0,0,1-.223.217Z" transform="translate(-37431.121 -26794.646)" fill="#7f2854"/>
        </g>
        <path id="Path_9757" data-name="Path 9757" d="M0,0H37.931V37.931H0Z" fill="none" fill-rule="evenodd"/>
      </g>
    </g>
  </g>
</svg>
