<svg xmlns="http://www.w3.org/2000/svg" width="33.159" height="23.315" viewBox="0 0 33.159 23.315">
  <g id="Group_756" data-name="Group 756" transform="translate(0 -76)">
    <g id="Group_755" data-name="Group 755" transform="translate(0 76)">
      <path id="Path_2209" data-name="Path 2209" d="M30.245,76H2.914A2.919,2.919,0,0,0,0,78.914V96.4a2.919,2.919,0,0,0,2.914,2.914h27.33A2.918,2.918,0,0,0,33.159,96.4V78.914A2.917,2.917,0,0,0,30.245,76Zm-.408,1.943L18.64,89.08a2.914,2.914,0,0,1-4.123,0L3.322,77.943ZM1.943,96.005V79.311l8.4,8.352Zm1.381,1.367,8.393-8.339,1.429,1.421a4.857,4.857,0,0,0,6.867,0l1.43-1.423,8.393,8.339Zm27.892-1.367-8.4-8.342,8.4-8.352Z" transform="translate(0 -76)" fill="#7f2854"/>
    </g>
  </g>
</svg>
