<svg xmlns="http://www.w3.org/2000/svg" width="30.58" height="34.793" viewBox="0 0 30.58 34.793">
  <g id="Group_761" data-name="Group 761" transform="translate(-31)">
    <g id="Group_758" data-name="Group 758" transform="translate(31)">
      <g id="Group_757" data-name="Group 757" transform="translate(0)">
        <path id="Path_2210" data-name="Path 2210" d="M52.1,22.988c3.7-5.81,3.237-5.085,3.344-5.236a11.129,11.129,0,0,0,2.06-6.471A11.213,11.213,0,1,0,37.2,17.835l3.284,5.154C36.97,23.528,31,25.136,31,28.677c0,1.291.843,3.13,4.856,4.564A32.174,32.174,0,0,0,46.29,34.793c7.341,0,15.29-2.071,15.29-6.116C61.58,25.136,55.617,23.529,52.1,22.988ZM38.9,16.713q-.017-.026-.035-.052a9.174,9.174,0,1,1,14.925-.1c-.1.13.414-.666-7.5,11.751Zm7.39,16.041c-8.018,0-13.251-2.357-13.251-4.077,0-1.156,2.689-3.058,8.647-3.8l3.744,5.876a1.019,1.019,0,0,0,1.719,0l3.744-5.876c5.958.741,8.647,2.642,8.647,3.8C59.541,30.383,54.355,32.755,46.29,32.755Z" transform="translate(-31)" fill="#7f2854"/>
      </g>
    </g>
    <g id="Group_760" data-name="Group 760" transform="translate(41.193 6.184)">
      <g id="Group_759" data-name="Group 759">
        <path id="Path_2211" data-name="Path 2211" d="M186.1,91a5.1,5.1,0,1,0,5.1,5.1A5.1,5.1,0,0,0,186.1,91Zm0,8.155a3.058,3.058,0,1,1,3.058-3.058A3.061,3.061,0,0,1,186.1,99.155Z" transform="translate(-181 -91)" fill="#7f2854"/>
      </g>
    </g>
  </g>
</svg>
