<svg xmlns="http://www.w3.org/2000/svg" width="32.39" height="32.437" viewBox="0 0 32.39 32.437">
  <g id="Group_752" data-name="Group 752" transform="translate(-0.344 0)">
    <g id="Group_751" data-name="Group 751" transform="translate(0.344 0)">
      <path id="Path_2206" data-name="Path 2206" d="M25.956,45.623a3.19,3.19,0,0,0-2.314-1.061A3.3,3.3,0,0,0,21.3,45.616l-2.163,2.156c-.178-.1-.356-.185-.527-.274-.246-.123-.479-.24-.678-.363A23.513,23.513,0,0,1,12.3,42a13.872,13.872,0,0,1-1.848-2.916c.561-.513,1.082-1.047,1.588-1.561.192-.192.383-.39.575-.582a3.141,3.141,0,0,0,0-4.737l-1.869-1.869c-.212-.212-.431-.431-.637-.65-.411-.424-.842-.863-1.287-1.273a3.241,3.241,0,0,0-2.293-1.006A3.353,3.353,0,0,0,4.2,28.412l-.014.014L1.858,30.774A5.009,5.009,0,0,0,.373,33.958a12,12,0,0,0,.876,5.08,29.477,29.477,0,0,0,5.237,8.736,32.217,32.217,0,0,0,10.728,8.4,16.715,16.715,0,0,0,6.024,1.78c.144.007.294.014.431.014a5.159,5.159,0,0,0,3.95-1.7c.007-.014.021-.021.027-.034A15.563,15.563,0,0,1,28.845,55c.294-.281.6-.575.89-.883a3.415,3.415,0,0,0,1.034-2.369A3.29,3.29,0,0,0,29.715,49.4Zm2.451,7.209c-.007,0-.007.007,0,0-.267.288-.541.548-.835.835a18,18,0,0,0-1.321,1.369,3.3,3.3,0,0,1-2.574,1.089c-.1,0-.212,0-.315-.007a14.848,14.848,0,0,1-5.34-1.6A30.411,30.411,0,0,1,7.917,46.6a27.793,27.793,0,0,1-4.929-8.208,9.775,9.775,0,0,1-.767-4.286,3.143,3.143,0,0,1,.945-2.033L5.5,29.741a1.556,1.556,0,0,1,1.041-.486,1.464,1.464,0,0,1,1,.479l.021.021c.418.39.815.794,1.232,1.225.212.219.431.438.65.664l1.869,1.869a1.307,1.307,0,0,1,0,2.122c-.2.2-.39.4-.589.589-.575.589-1.123,1.136-1.718,1.67-.014.014-.027.021-.034.034a1.4,1.4,0,0,0-.356,1.554l.021.062a15,15,0,0,0,2.211,3.608l.007.007a25.127,25.127,0,0,0,6.079,5.532,9.347,9.347,0,0,0,.842.459c.246.123.479.24.678.363.027.014.055.034.082.048a1.484,1.484,0,0,0,.678.171,1.464,1.464,0,0,0,1.041-.472l2.341-2.341a1.549,1.549,0,0,1,1.034-.513,1.394,1.394,0,0,1,.986.5l.014.014L28.4,50.689A1.354,1.354,0,0,1,28.407,52.832Z" transform="translate(-0.344 -25.53)" fill="#7f2854"/>
      <path id="Path_2207" data-name="Path 2207" d="M245.7,87.759a8.811,8.811,0,0,1,7.175,7.175.919.919,0,0,0,.911.767,1.221,1.221,0,0,0,.157-.014.925.925,0,0,0,.76-1.068,10.654,10.654,0,0,0-8.681-8.681.929.929,0,0,0-1.068.753A.914.914,0,0,0,245.7,87.759Z" transform="translate(-228.198 -80.043)" fill="#7f2854"/>
      <path id="Path_2208" data-name="Path 2208" d="M264.143,14.309A17.543,17.543,0,0,0,249.849.014a.923.923,0,1,0-.3,1.821A15.669,15.669,0,0,1,262.322,14.61a.919.919,0,0,0,.91.767,1.222,1.222,0,0,0,.157-.014A.907.907,0,0,0,264.143,14.309Z" transform="translate(-231.768 0)" fill="#7f2854"/>
    </g>
  </g>
</svg>
