<svg xmlns="http://www.w3.org/2000/svg" width="52.316" height="52.295" viewBox="0 0 52.316 52.295">
  <path id="Path_2399" data-name="Path 2399" d="M50.72,29.737,43.19,26.6V24.346a8.394,8.394,0,0,0,4.05-5.622h.169a2.532,2.532,0,0,0,.069-5.063l.827-1.917a6.816,6.816,0,0,0-3.434-8.9L42.515,1.769a8.647,8.647,0,0,0-8.634.938L32.568,3.7a5.254,5.254,0,0,0-3.672,6.79,8.752,8.752,0,0,0-3.849.094,6.79,6.79,0,0,0-3.8-7.74L18.889,1.769a8.647,8.647,0,0,0-8.634.938L8.942,3.7a5.257,5.257,0,0,0-3.4,7.444L6.8,13.661a2.532,2.532,0,1,0,.1,5.063h.169a8.406,8.406,0,0,0,4.05,5.621V26.6L3.6,29.737A4.208,4.208,0,0,0,1,33.631v11.25a.844.844,0,0,0,.844.844H7.75v6.75a.844.844,0,0,0,.844.844H45.722a.844.844,0,0,0,.844-.844v-6.75h5.907a.844.844,0,0,0,.844-.844V33.631a4.208,4.208,0,0,0-2.6-3.894ZM30,12.587l2.355,1.074a5.129,5.129,0,0,1,2.583,6.7l-.253.578-.865-1.748a.844.844,0,0,0-1.266-.3l-1.35,1.013a6.75,6.75,0,0,1-8.1,0l-1.35-1.013a.835.835,0,0,0-.7-.146.844.844,0,0,0-.562.444l-.932,1.872-.7-1.393a3.568,3.568,0,0,1,3.19-5.164,3.941,3.941,0,0,1,3.285,1.758l.265.4,1.4-.937-.265-.4a5.621,5.621,0,0,0-3.182-2.3A6.93,6.93,0,0,1,30,12.587ZM35.6,24.63h.844a.844.844,0,1,1,0,1.688H35.6ZM24.627,34.367a8.431,8.431,0,0,0,5.063,0v1.727l-2.531,2.531-2.531-2.531Zm2.531-1.3a6.758,6.758,0,0,1-6.75-6.75V23.142l1.146-2.293.542.406a8.438,8.438,0,0,0,10.126,0l.542-.406,1.146,2.293v3.176a6.758,6.758,0,0,1-6.75,6.75Zm-8.438-6.75h-.844a.844.844,0,0,1,0-1.688h.844ZM7.75,43.228v.81H2.688V33.631A2.526,2.526,0,0,1,4.245,31.3l8.049-3.353a.844.844,0,0,0,.519-.781V23.841a.883.883,0,0,0-.489-.765,6.723,6.723,0,0,1-3.689-5.288.844.844,0,0,0-.839-.751h-.89a.844.844,0,1,1,0-1.688H7.75a.844.844,0,0,0,.844-.85l-.006-.844a.844.844,0,0,0-.089-.371l-1.449-2.9a3.568,3.568,0,0,1,2.437-5.08.865.865,0,0,0,.33-.151l1.451-1.1a6.934,6.934,0,0,1,6.919-.751l2.358,1.071a5.129,5.129,0,0,1,2.583,6.7l-.137.316a8.174,8.174,0,0,0-.922.595l-1.331,1h0a5.249,5.249,0,0,0-3.387,7.436l1.262,2.521h-.738a2.531,2.531,0,1,0,0,5.063h1.013a8.458,8.458,0,0,0,4.05,5.609V35.8l-12.1,3.361a4.231,4.231,0,0,0-3.09,4.065Zm37.127,8.4H39.815v-6.75H38.127v6.75H16.188v-6.75H14.5v6.75H9.438v-8.4a2.537,2.537,0,0,1,1.856-2.439l12.243-3.4,3.027,3.027a.844.844,0,0,0,1.193,0l3.027-3.027,12.238,3.4a2.537,2.537,0,0,1,1.856,2.439Zm6.75-7.594H46.565v-.81a4.231,4.231,0,0,0-3.09-4.065L31.377,35.8V33.614a8.458,8.458,0,0,0,4.05-5.609H36.44a2.531,2.531,0,0,0,0-5.063h-.775l.827-1.916a6.816,6.816,0,0,0-3.434-8.9L31.1,11.232l-.422-.844a3.568,3.568,0,0,1,2.436-5.081.865.865,0,0,0,.33-.151l1.451-1.1a6.934,6.934,0,0,1,6.919-.751l2.358,1.071a5.129,5.129,0,0,1,2.583,6.7l-.97,2.245a.844.844,0,0,0-.069.338l.006.844a.844.844,0,0,0,.844.844h.844a.844.844,0,0,1,0,1.688h-.89a.844.844,0,0,0-.839.751,6.72,6.72,0,0,1-3.713,5.3.844.844,0,0,0-.468.755v3.321a.844.844,0,0,0,.519.779L50.071,31.3a2.526,2.526,0,0,1,1.558,2.335Z" transform="translate(-1 -1.025)" fill="#a7a9ac"/>
</svg>
