<svg xmlns="http://www.w3.org/2000/svg" width="46.74" height="54.724" viewBox="0 0 46.74 54.724">
  <path id="Path_2400" data-name="Path 2400" d="M61.572,5.044a18,18,0,1,0,18,18,18.02,18.02,0,0,0-18-18Zm0,33.853A15.854,15.854,0,1,1,77.425,23.044,15.871,15.871,0,0,1,61.572,38.9ZM84.8,47.1l-5.976-10.35a22.044,22.044,0,1,0-34.5,0L38.345,47.1a1.073,1.073,0,0,0,1.261,1.557l8.837-2.877,1.927,9.092a1.073,1.073,0,0,0,1.979.314l5.97-10.34a22.124,22.124,0,0,0,6.5,0l5.97,10.34a1.073,1.073,0,0,0,1.979-.314L74.7,45.782l8.837,2.877A1.073,1.073,0,0,0,84.8,47.1Zm-32.907,4.59L50.3,44.169a1.073,1.073,0,0,0-1.382-.8L41.6,45.752l4.217-7.3A22.05,22.05,0,0,0,56.1,44.4ZM41.674,23.044a19.9,19.9,0,1,1,19.9,19.9A19.921,19.921,0,0,1,41.674,23.044ZM74.229,43.372a1.073,1.073,0,0,0-1.382.8l-1.595,7.522L67.043,44.4a22.051,22.051,0,0,0,10.281-5.953l4.217,7.3Zm.294-23.338a1.073,1.073,0,0,0-.952-.739l-8.032-.514L62.569,11.3a1.073,1.073,0,0,0-1.995,0L57.6,18.781l-8.032.514a1.073,1.073,0,0,0-.616,1.9l6.2,5.137-1.993,7.8A1.073,1.073,0,0,0,54.772,35.3l6.8-4.305,6.8,4.305a1.073,1.073,0,0,0,1.614-1.172l-1.993-7.8,6.2-5.137a1.073,1.073,0,0,0,.336-1.158ZM66.1,25.11a1.073,1.073,0,0,0-.355,1.092l1.492,5.838-5.091-3.223a1.073,1.073,0,0,0-1.148,0l-5.091,3.223L57.4,26.2a1.073,1.073,0,0,0-.355-1.092l-4.639-3.846,6.014-.385a1.073,1.073,0,0,0,.929-.675l2.224-5.6L63.8,20.2a1.073,1.073,0,0,0,.929.675l6.014.385Z" transform="translate(-38.202 -1)" fill="#a7a9ac"/>
</svg>
