<svg xmlns="http://www.w3.org/2000/svg" width="170" height="51.768" viewBox="0 0 170 51.768">
  <g id="Group_824" data-name="Group 824" transform="translate(-41.738 -596.524)">
    <path id="Path_46" data-name="Path 46" d="M14.853,257.4a24.59,24.59,0,0,0,30.954,2.049c4.929-3.428,9.287-9.932,11.308-15.509,3.589-9.909-.571-20.871-8.654-27.118-9.319-7.2-22.5-5.553-30.952,2.047-1.094.984-1.562,2.667-2.655,3.643a24.386,24.386,0,0,1,40.7,14.815c2.949,21.792-23.789,29.246-38.047,16.429.092.074-2.794,3.514-2.655,3.642" transform="translate(26.89 384.312)" fill="#fff"/>
    <path id="Path_47" data-name="Path 47" d="M15.477,243.539c7.8-8.178,20.063,2.581,26.572,7.442,5.707,4.251,18.258,16.176,25.442,8.709,1.031-1.076,1.616-2.578,2.649-3.653-7.181,7.468-19.748-4.448-25.434-8.705-6.5-4.865-18.792-15.614-26.576-7.44-1.033,1.078-1.627,2.569-2.653,3.646" transform="translate(26.918 385.397)" fill="#fff"/>
    <path id="Path_48" data-name="Path 48" d="M77.27,229.3H81.3v.622a10.477,10.477,0,0,1-.145,1.945,2.877,2.877,0,0,1-.5,1.193,3.569,3.569,0,0,1-2.526,1.293,59.117,59.117,0,0,1-6.226.2,36.424,36.424,0,0,1-4.191-.181A3.673,3.673,0,0,1,64.356,232a8.383,8.383,0,0,1-.411-2.226q-.07-1.182-.07-2.5a15.754,15.754,0,0,1,.261-3.429,3.672,3.672,0,0,1,1.058-1.905,4.462,4.462,0,0,1,2.111-.993,26.563,26.563,0,0,1,4.822-.29q3.017,0,4.451.07a9.847,9.847,0,0,1,2.276.331,3.108,3.108,0,0,1,1.334.8,4.613,4.613,0,0,1,.932,3.259v.431h-3.98a2.721,2.721,0,0,0-.161-.862q-.2-.512-1.092-.652a21.146,21.146,0,0,0-2.628-.1,34.914,34.914,0,0,0-3.659.1,1.627,1.627,0,0,0-1.413,1.084A11.277,11.277,0,0,0,68,227.782q0,2.245.572,2.827a2.949,2.949,0,0,0,1.834.572q.692.05,1.8.05,2.136,0,2.807-.03,1.805-.07,2.116-.912a3.265,3.265,0,0,0,.14-.993" transform="translate(29.044 384.683)" fill="#fff"/>
    <path id="Path_49" data-name="Path 49" d="M82.132,234.445l7.7-13.685h5.585l7.489,13.685H98.355L96.99,232H88.159l-1.314,2.446Zm7.53-5.294h5.885L92.569,223.7Z" transform="translate(29.846 384.688)" fill="#fff"/>
    <path id="Path_50" data-name="Path 50" d="M103.857,234.445V220.76h11.82a9.717,9.717,0,0,1,3.7.492,2.641,2.641,0,0,1,1.383,1.5,7.147,7.147,0,0,1,.361,2.506q0,2.426-1.163,3.249a4.475,4.475,0,0,1-1.825.6q-.36.059-.832.13c.348.026.574.04.682.04a4.582,4.582,0,0,1,1.955.381,1.8,1.8,0,0,1,.762.923,4.915,4.915,0,0,1,.231,1.694v2.165H116.71v-1.7a1.727,1.727,0,0,0-.521-1.484,1.866,1.866,0,0,0-.943-.251q-.2-.02-.832-.02h-6.407v3.459Zm4.151-6.807h6.517a5.356,5.356,0,0,0,1.744-.2q.661-.251.662-1.313a6.411,6.411,0,0,0-.061-.993,1.047,1.047,0,0,0-.8-.9,5.808,5.808,0,0,0-1.394-.111h-6.668Z" transform="translate(30.8 384.688)" fill="#fff"/>
    <path id="Path_51" data-name="Path 51" d="M123.66,220.76H138.83v3.108H127.771V226.2h10.436v2.707H127.771v2.426h11.2v3.108H123.66Z" transform="translate(31.67 384.688)" fill="#fff"/>
    <path id="Path_52" data-name="Path 52" d="M64.675,251.245V237.56h2.657l8.262,11.77,8.261-11.77h2.577v13.685H84.788V238.9l-8.632,12.342h-1.2L66.319,238.9v12.342Z" transform="translate(29.079 385.426)" fill="#fff"/>
    <path id="Path_53" data-name="Path 53" d="M89.185,251.245V237.56H102.83v1.373h-12v4.562h11.55v1.3H90.829v5.072h12.092v1.374Z" transform="translate(30.156 385.426)" fill="#fff"/>
    <path id="Path_54" data-name="Path 54" d="M105.291,251.245V237.559h10.647a9.94,9.94,0,0,1,3.489.451,3.68,3.68,0,0,1,1.885,1.535,13.664,13.664,0,0,1,0,9.715,3.848,3.848,0,0,1-2.256,1.674,11.452,11.452,0,0,1-3.118.311Zm1.644-1.374h9.133q2.9,0,3.72-1.333a8.342,8.342,0,0,0,.7-4.071,8.692,8.692,0,0,0-.731-4.3q-.8-1.232-3.81-1.233h-9.013Z" transform="translate(30.863 385.426)" fill="#fff"/>
    <rect id="Rectangle_19" data-name="Rectangle 19" width="1.644" height="13.685" transform="translate(156.487 622.986)" fill="#fff"/>
    <path id="Path_55" data-name="Path 55" d="M144.366,246.65h1.6v.571a6.231,6.231,0,0,1-.341,2.427,2.794,2.794,0,0,1-2.256,1.523,41.188,41.188,0,0,1-5.564.231,27.1,27.1,0,0,1-5.494-.331,3.2,3.2,0,0,1-2.406-2.4,19.762,19.762,0,0,1-.3-4.261,25.637,25.637,0,0,1,.181-3.709,3.714,3.714,0,0,1,.912-2.036,3.669,3.669,0,0,1,1.9-.993,46.837,46.837,0,0,1,6.648-.26,22.122,22.122,0,0,1,3.95.231,2.889,2.889,0,0,1,2.265,1.684,7.648,7.648,0,0,1,.381,2.546h-1.6v-.38a3.289,3.289,0,0,0-.331-1.7q-.421-.651-2.136-.841-1.032-.111-3.9-.111a25.12,25.12,0,0,0-4.762.27,2.016,2.016,0,0,0-1.283.832,3.719,3.719,0,0,0-.431,1.685q-.081,1.1-.08,2.777a21.543,21.543,0,0,0,.191,3.619,2.134,2.134,0,0,0,.771,1.314,3.989,3.989,0,0,0,1.834.521q1.084.1,3.44.1a32.146,32.146,0,0,0,5.273-.27,1.728,1.728,0,0,0,1.294-.853,3.151,3.151,0,0,0,.24-1.413Z" transform="translate(31.931 385.419)" fill="#fff"/>
    <path id="Path_56" data-name="Path 56" d="M161.425,248.167h-11.2l-1.825,3.078h-1.815l8.061-13.686h2.336l8.071,13.686h-1.814Zm-.771-1.3-4.832-8.161L151,246.864Z" transform="translate(32.677 385.426)" fill="#fff"/>
    <path id="Path_57" data-name="Path 57" d="M165.719,251.245V237.56h1.644v12.311h10.858v1.374Z" transform="translate(33.518 385.426)" fill="#fff"/>
    <path id="Path_58" data-name="Path 58" d="M158.875,249.463l-.354,1.126h-.194l-.237-.81-.029-.1c0-.005-.006-.023-.015-.05l-.014-.051h0l-.014.051-.016.051-.03.1-.241.809h-.19l-.346-1.126h.13l.243.81.032.11c0,.009.008.027.017.054l.016.055h0l.016-.055.016-.054.032-.109.239-.811h.189l.237.811.032.109.015.055.016.054h0l.017-.055.017-.055.033-.111.247-.808Z" transform="translate(33.143 385.948)" fill="#fff"/>
    <rect id="Rectangle_20" data-name="Rectangle 20" width="0.127" height="0.151" transform="translate(192.122 636.388)" fill="#fff"/>
    <path id="Path_59" data-name="Path 59" d="M159.353,249.463v1.009h.58v.117h-.707v-1.126Z" transform="translate(33.232 385.948)" fill="#fff"/>
    <rect id="Rectangle_21" data-name="Rectangle 21" width="0.127" height="0.151" transform="translate(193.273 636.388)" fill="#fff"/>
    <path id="Path_60" data-name="Path 60" d="M160.455,249.463v1.009h.579v.117h-.707v-1.126Z" transform="translate(33.281 385.948)" fill="#fff"/>
  </g>
</svg>
